<svg xmlns="http://www.w3.org/2000/svg" viewBox="0 0 199.54 208.48" xmlns:v="https://vecta.io/nano"><path d="M12.54 8.99L127.9.47c14.17-1.22 17.81-.4 26.72 6.08l36.82 25.94c6.07 4.46 8.1 5.68 8.1 10.54V185.3c0 8.92-3.24 14.19-14.57 15l-134 8.11c-8.51.4-12.56-.81-17-6.49L6.85 166.66c-4.86-6.49-6.88-11.35-6.88-17V23.17c0-7.29 3.24-13.37 12.54-14.18z" fill="#fff"/><path d="M165.54 69.78c.81 3.65 0 7.3-3.65 7.71l-6.07 1.2v89.18c-5.28 2.83-10.11 4.5-14.17 4.5-6.48 0-8.1-2-12.95-8.1L89.04 101.8v60.39l12.5 2.84s0 7.3-10.12 7.3l-27.88 1.62c-.81-1.63 0-5.68 2.83-6.48l7.29-2V85.6l-10.12-.82a7.58 7.58 0 0 1 6.88-9.33l30-2 41.28 63.22V80.73l-10.52-1.21c-.81-4.47 2.43-7.71 6.47-8.11zM41.29 184.08V63.3c0-5.27 1.62-7.71 6.47-8.12l131.53-7.7c4.46-.4 6.48 2.43 6.48 7.7v120c0 5.27-.81 9.74-8.1 10.14l-125.87 7.3c-7.28.4-10.51-2-10.51-8.51zM54.04 40.7c-10.94.74-13.42.9-19.63-4.15l-15.8-12.56c-1.61-1.63-.8-3.66 3.25-4.06l110.89-8.1c9.31-.81 14.16 2.43 17.8 5.27l19 13.78c.81.41 2.84 2.84.4 2.84L55.43 40.61zM127.9.47L12.54 8.99C3.24 9.8 0 15.88 0 23.17v126.46c0 5.68 2 10.53 6.88 17L34 201.89c4.45 5.68 8.51 6.89 17 6.49l134-8.11c11.33-.81 14.57-6.08 14.57-15V43.03c0-4.61-1.82-5.93-7.18-9.87l-.92-.67-36.82-25.94C145.74.07 142.1-.75 127.93.47z" fill-rule="evenodd"/></svg>