<svg xmlns="http://www.w3.org/2000/svg" viewBox="0 0 500 340" xmlns:v="https://vecta.io/nano"><path d="M510.3 257.8c0-.2.1-.3.1-.3l.6-.2-.9-.1c-.2-.5-.2-.5-.8-.7v-1c.1-.2.2-.3.3-.4-.3-.3-.6-.5-.8-.8l.3-.4c-.3-.2-.2-.6-.6-.7h-.8c-.2.1-.3.3-.5.1-.1-.1-.1-.2-.2-.4h-.6c-.1-.2-.4-.2-.4-.5l.2-.2-.2-.2c.2-.2.5-.3.7-.4l-.4-.3c-.3 0-.6.1-.9-.1 0-.2 0-.3-.1-.5s-.2-.3-.4-.5c-.4.1-.6-.2-.9-.2l-.4.2-.2-.4-.4-.1c0-.2 0-.3-.1-.5-.3-.3-.7-.6-1.2-.7l-1-.9v-.5l.2-.2c-.2-.1-.2-.3-.4-.3l-.2.2-.3-.3c-.1-.4.3-.3.5-.5l-.5-.2c-.3-.1-.2-.3-.4-.5-.1-.1-.2-.2-.3-.2-.4 0-.5-.3-.8-.4h-.5l-.3-.2c-.2 0-.4.1-.6-.1 0-.1-.1-.2-.1-.3l-.4-.1c0-.1-.1-.2-.1-.3l-.5-.1v-.5l-1.5-.6c-.1-.3-.3-.5-.4-.7 0-.1-.1-.1-.2-.1-.2-.1-.3-.1-.5-.2 0-.2.1-.4-.1-.5-.5 0-1.4-.4-1.9-.7v-.3c-.2-.2-.5-.3-.6-.5-.2-.2-.3-.5-.5-.6l-.4-.1-.1-.3-.7-.1-.1-.3-.5-.1v-.2c-.2-.2-.4-.3-.7-.4 0-.1-.1-.2-.1-.4h.3l-1-.7c0-.4-.5-.5-.6-.7l-.5-.8h-.5c-.3-.3-.6-.6-1-.8h-.3l-.4-.6c0-.1-.1-.2-.1-.2h-.7c-.1 0-.1-.1-.2-.1v-.4l-.9-.8h-.3l-.2-.4h-.3l-.9-.7-1-.4c0-.1 0-.2-.1-.3l-.6-.1-1.1-.9-.1-.3h-.6l-.2-.4-.4-.1v-.2l-1.5-1.2h-.4l-.4-.3c0-.1-.1-.2-.1-.3l-.4-.1c-.1-.1-.1-.3-.2-.4h-.5c-.3-.2-.5-.5-.9-.6s-.6-.5-1-.6-.6-.4-.9-.5v-.2l-.6-.3c-.2 0-.4-.2-.6-.3-.2-.2-.3-.4-.7-.4-.2 0-.3-.3-.5-.4l-.6-.3v-.4c-.1-.1-.2-.3-.4-.3-.4 0-.5-.2-.6-.5-.1-.2-.6-.3-.5-.7l-.1-.1c-.3.1-.4-.3-.8-.3-.1 0-.2-.1-.3-.2h-.6c0-.1-.1-.2-.1-.3-.1 0-.3-.1-.4-.1-.2-.1-.3-.1-.5-.2-.1-.2.1-.3-.1-.5l-.6-.1-.9-.8c-.5-.1-.9-.2-1.1-.5 0-.1-.1-.2-.1-.3-.2-.1-.3-.1-.5-.2-.1-.1-.3-.1-.4-.2s-.3-.1-.4-.2-.3-.2-.4-.3.1-.3-.1-.3l-.5.2-1-.9h-.3l-.4-.3v-.2l-.3-.1-.4.3c-.1-.4-.6-.4-.9-.6-.3-.1-.5-.4-.8-.4-.3-.1-.5-.3-.8-.5h-.4l-.7-.3-1.1-.9h-.2l-.2-.4h-.4l-.3-.4h-.6l-.5-.4h-.3c-.2-.2-.2-.5-.5-.6l-.3.2-.2-.2c-.2-.1-.5.1-.7-.1v-.2c-.3-.2-.7-.2-.8-.6 0-.2-.2-.3-.5-.4-.2 0-.3-.2-.5-.3 0-.1-.1-.2-.1-.3-.7-.1-.7-.6-1-.9l.3-.3-.2-.2v-.4l.2-.2-.2-.2.3-.2v-.6l.2-.2c0-.2 0-.3.1-.5l.5-.4-.3-.2v-.6l.2-.2v-1l-.2-.2.2-.2v-1.1l.5-.2-.3-.2v-.4l.5-.7-.2-.2c.4-.2.8 0 1.2-.2l-.2-.2.2-.2c.4-.1.6 0 .8-.2l-.2-.2.4-.3h.7l1.2-.5v-.2c.1-.1.2-.1.3-.2.2-.1.4-.1.5-.2s.5 0 .5-.3c0-.1.2-.3.3-.4.2 0 .5.1.6-.1v-.4c.2-.1.2-.3.4-.5l.4-.1v-.3c.2-.1.4-.1.6-.3.1-.1.5.1.7-.2.2-.2.5.1.7-.2.2-.2.5-.1.7-.1.2-.2.5-.4.8-.5s.5-.4.7-.6l.3.2.2-.2h.6c.6-.3.8-.7 1.3-.8.5-.2.7-.6 1.1-.8.2.1.3.4.6.1 0-.2 0-.3.1-.5l.3-.3h1s.1 0 .1-.1v-.2l.6-.3c.2-.1.4-.3.5-.4h.3l.2-.4h.5l.3-.2.3.2.4-.3-.5-.1c.1-.2.2-.3.3-.3.3-.1.4.1.5.1h.8l.3-.3-.2-.2c.2-.1.4-.1.6-.1.2-.1.3-.4.7-.4l.4.2.4-.4h.6l.1-.3c.1-.2.4-.2.4-.4l-.2-.1.3-.5.6-.1c.1-.2.2-.4.4-.6l.4-.1.1-.3 1-.4-.3-.2c.5-.2 1 0 1.4-.1l.5-.6h.8c.2-.2.4-.5.7-.6s.5-.3.8-.5h1c.1-.2.4-.2.6-.3v-.1l.6-.7h.6l.3.2c.3 0 .7 0 1.1-.1v-.1l-.2-.2 1.1-.9c.2.1.3.4.6.1v-.4l-.3-.3c.5 0 .7-.3.9-.4h.5l.1-.4.4-.2v-.5l.4-.1c.1-.2.2-.4.4-.6v-.1l-.3-.2v-.2l.5-.1c.1-.4 0-.9.1-1.5l.4-.2v-.5l.5-.2-.5-.2.3-.3-.3-.4.2-.3c-.3-.2-.2-.6-.6-.7h-1.2l-.4.2c-.3-.1-.3-.3-.7-.2-.1.1-.2.3-.4.4a.55.55 0 0 0-.5.3c-.1.2-.5.1-.6.3v.1c-.3.5-.9.6-1.2.9-.2.1-.5.2-.7.3l-.2-.2c-.1.2-.2.3-.3.5s-.5.1-.6.3l-.2.2v.5c-.5 0-.6.3-.9.4-.2.1-.5 0-.7-.2l-.7.3-.7.5-.4.1c-.1.1-.1.2-.2.4h-.8c-.4.3-.7.6-1.1.8l-.2-.2c-.4.1-.3.4-.5.6h-.3c-.2.2-.3.4-.5.6h-.5l-1.1.9c0 .1-.1.2-.1.3h-1l-1.7 1.4-.2-.1-.1.3-.7.3h-.9s-.1 0-.1.1c-.1.2.1.4-.2.6h-.5c-.3.4-.9.5-1.3.7-.1.1-.1.3-.2.3-.1.1-.2.2-.4.2-.1 0-.2.1-.3.1-.1.1-.2.1-.3.2s-.2.2-.4.3c-.1 0-.2.1-.3.1-.1.2.1.4-.1.5l-.3-.2h-.5c-.2.1-.3.4-.7.4-.3 0-.4.2-.6.4s-.5.2-.7.4v.4l-.4.3h-.9l-.7.3v.4l-.1.1-.3-.2-.3.2h-1c-.2.2-.5.3-.6.5-.1.3-.3.4-.5.5-.2 0-.4-.1-.6.1v.2c-.1 0-.3.1-.4.1-.2.1-.3.2-.5.4h-1.1l-.5.6h-.3c0 .1-.1.2-.2.4l-.4.1v.2l-.7.3-.2-.2h-.5l-.2.2-.4.1-.1.3-.4.1v.5h-1l-.7-.2-.8-.7c0-.1 0-.2-.1-.3l-.5-.1.2-.2-.5-.8c.1-.3.6-.4.5-.7.3-.2.2-.5.5-.7v-.8l.3-.2v-.1h.2c0-.1-.1-.2-.1-.3l.5-.1c.1-.2.2-.4.3-.7h.1c.1-.3.2-.5.2-.8l.3-.1h0c.2-.1.2-.2.1-.4l.3.1h0 0 0 0l.6-.5v-.2l.7-.3.2.2a1.38 1.38 0 0 0 .4-.3l-.2-.2.8-.1v-.5l.5-.4c0-.1.1-.2 0-.3h.1l-.1-.1c0-.1 0-.1.1-.2.1 0 .3 0 .4-.1l-.2-.2c.2-.2.4 0 .5-.1l.8-.6.6-1-.2-.2c.1-.1.3-.2.2-.4l-.3-.2v-.7l-.1-.1.1-.3h-.2-.3 0l.3-.5c-.2-.1-.3-.3-.4-.4 0 0 0-.1-.1-.1-.1-.1-.1-.2-.2-.3.1-.2.3-.4.4-.5.1 0 0-.1-.1-.1v-.1h.1l.8.3c.1 0 .2.1.3.1.1-.2-.1-.2-.2-.2l.2-.4.2.3.3-.3.2.3c.1-.2.1-.3.2-.4-.6.2-.6.2-.7-.2 0 0-.1-.1-.2-.1s-.2.1-.1.2c.2.2-.1.2-.2.3v-.3l-.5.1c.2-.2.6-.3.3-.7-.1.1-.2.2-.2.3-.1.1-.1.2-.3.1h-.4-.2-.4l-.3-.2.2-.1-.2-.2.4-.1c0 .2 0 .3.1.4.1-.1.3-.2.4-.3s.2-.3.3-.4l-.1-.1c-.1 0-.2.1-.3.1-.1.1-.3.2-.5.1-.2 0-.3-.1-.3-.2 0 0-.1 0-.1-.1l-.1.1c0 .1-.1.3-.1.5h-.2c0 .1 0 .1.1.2l-.4.1v-.2h-.2c.1-.1.2-.2.3-.2 0 0 .1-.1.1-.2-.1-.1-.2-.1-.3-.2 0 .1-.1.2-.1.3l-.4-.2h0l-.1-.4h-.1c0 .2-.1.4-.1.7.3-.1.5-.2.6.1l-.1.1.4.2c-.4.4-.9.1-1.3.4-.1-.3-.3-.2-.5-.2v.2h0l-.1-.2h-.1c0 .1 0 .2.1.2h.4c-.1.1-.1.3-.1.4h0c-.1 0-.2 0-.3.1-.1 0-.1-.1-.1-.1l.1-.1.2.1.1-.2h-.4l-.1-.2c0 .4-.4.5-.5.7h-.1c0-.1.1-.1.1-.2l-.7-.2c0 .2 0 .3-.1.5h-.1v-.3h-.3l-.1.2-.3-.1c0 .1.1.2.1.3h-.1l-.2-.3h0-.1c-.1-.1-.1-.2-.2-.3v.1l-.5-.3.2-.2-.5-.4v-1.2s0-.1.1-.1l.3.1c.1-.1.4-.2.3-.5l-.5-.3h-.1l-.9-.7v-.6l.3-.3c-.2-.3-.2-.3-.2-.6l.4-.1v-.3l-.7-.5c-.1-.3 0-.5.2-.7l-.2-.2v-.9l.5-.4v-.3l-.2-.2c-.1-.2 0-.4-.1-.5-.2-.1-.4 0-.4-.2l.2-.2c0-.2.1-.4-.1-.5-.2-.2-.1-.4-.1-.6l.2-.2v-.4c.2-.2.3-.3.5-.4v-.4l-.5-.2c.1-.2.2-.3.3-.4-.2-.2-.4-.3-.5-.5l.3-.3-.2-.2.2-.2-.4-.1c-.1-.2.1-.4-.1-.5l-.4-.1c0-.2-.1-.3 0-.4.2-.3.4-.7.8-.9v-.4l.2-.2-.3-.3v-.6l-.2-.2.2-.2v-.4l-.2-.2c0-.1-.1-.2-.1-.3-.2-.1-.4 0-.4-.2l.3-.3c-.1-.2-.2-.4-.2-.6h.2l1.3-1v-.9c-.3-.2-.2-.5-.3-.7a1.38 1.38 0 0 0-.3-.4l-.4-.1v-.6l-.2-.2.3-.2v-.7l.5-.8v-.5l.5-.4v-.6c-.1-.1-.3-.2-.1-.6l.4-.2v-.5l-.2-.2.4-.7-.3-.3c.1-.1.2-.2.3-.4h-.9c-.1-.2-.4-.2-.4-.5l.2-.2-.2-.2v-.3c.1-.2.2-.3.4-.7l.4-.2v-1.3l.2-.2.1-.5.2-.2-.5-.2v-.8l.5-.2c-.1-.1-.1-.1-.2-.1h-1.5c-.1-.1-.2-.1-.3-.2-.1 0-.3 0-.3-.2h1.1l.2-.2c.2-.1.5.1.7-.1.1-.2-.2-.3-.2-.4l.2-.2-.3-.3c-.3 0-.6.1-.9-.1l.5-.2v-.4c-.2-.2-.5-.3-.5-.6.1-.1.1-.2.2-.3l-.4-.1c0-.2 0-.3-.1-.5l-.5-.4c-.1-.3.3-.4.5-.6v-.1l-.7-.3-.4.2c-.1-.2-.2-.5-.4-.6-.4-.1-.5-.3-.8-.4h-.3c-.1.1-.1.2-.2.4-.2.1-.5 0-.7.1-.2 0-.5-.1-.7.1l.5.2c0 .1-.1.2-.1.3l-.7.1v.5l-.4.1c-.2.1-.4.3-.5.4v.1l.2.2c-.2 0-.2.3-.4.3l-.2-.4s-.1 0-.1.1c0 .2-.1.5-.1.7l-.2.3v1.3c-.3.1-.7-.1-.9.1l-.3.5c.2.1.4.1.5.3.2.2.5.2.7.4l-.7.1c-.2.2 0 .3.2.5-.1.2-.6.3-.4.7l.5.3c-.2.5.3.9.3 1.3l.5.1-.3.2v.4l.3.2v.4l.2.2-.3.3v1.4l-.2.2c0 .2-.1.5.2.6-.1.3.4.4.3.6l-.2.2c.2.1.2.3.3.4.3.3.3.5 0 .8.1.3-.4.4-.3.6l.3.2v.8l-.3.2.5.1v.7l-.2.2.3.5.4.1v.9l.2.2-.5.2.2.2-.2.2.5.1v.2l-.3.2v.6l-.2.2.2.2-.2.2v1.3l.1.1.4.1-.3.4.4.4-.2.3c-.1.2 0 .4-.2.6l-.4.1v.7c.1 0 .1.1.2.2v.7l.4.6.4.1-.5.2-.3.6.3.4-.3.3v1.3l.4.1.4.3-.6.2.6.4v.9l-.3.3c.1.1.3.3.3.4 0 .2 0 .4.3.5l-.5.5c.1.3.4.5.3.8.4.2.1.6.3.8l.2.3-.3.3c0 .2.1.5-.1.7l-.2.2v.6c.4.5 1 .7 1.3 1.3l-.6.2c.1.1.2.2.3.2v1.2l.2.2-.2.2.2.2-.5.7v1l.2.2-.3.4.6.3v.4h0 0l.1-.1-.3-.1c0 .1 0 .1-.1.3l-.2-.4v.2c0 .1 0 .1.1.2-.3-.3-.4-.2-.6 0h-.2l.2.2h0l-.4-.2c.1.1.1.3.2.4h-.4c0 .1.1.1.1.1l-.2.3.3.1-.1.2c-.1-.2-.3-.2-.5-.2l.3.4h-.3c-.1.2-.1.4.1.5v.2c-.1-.2-.1-.2-.4-.1v.2h.2c0 .1-.1.2 0 .2.3.1.1.2 0 .3-.1-.2-.1-.3-.2-.4-.1.1-.2.3 0 .4s.3.1.5.2v.1l-.4-.1.3.6.1-.2.3.2c-.2.2-.3.5-.2.6s.2.1.2.2l-.3.5-.9.3c-.2.2-.4.3-.6.5s-.2.5-.5.6h-.9l-.2.2-.4.1c0 .1-.1.2-.1.3h-.8l-.9.7-1 .4-.9.8-.3-.2c-.1.1-.1.3-.2.4h-1l-.3.2-.2-.2c-.8.4-.8.4-1.1.8h-.2c-.2.1-.4.3-.6.4-.4.1-.8.3-1.2.5l-1.1.6-.3-.2-.7.6h-.2l-.8.6c-.4 0-.5.3-.8.4s-.7.2-.9.4h-.8l-.3.3c-.5.2-.8.2-1.1.3s-.5.3-.7.6c-.1.1-.1.2-.3.3-.2 0-.3.2-.5.2h-.5l-.7.3c0 .1-.1.2-.1.3-.6-.1-1 .4-1.6.4l-.3-.2-.9.4h-.7c-.3.4-.9.4-1.3.8h-1l-.2.2h-1l-.5.4c-.5.1-1.1 0-1.6 0l-.4.4-.3-.2-.2.2-.6.1-.2.1-.5-.2-.3.2h-.8l-.3-.3.2-.2-.2-.2v-1.2l-.2-.2c-.1-.3.3-.4.3-.7 0-.2.2-.3.2-.5v-.7l.3-.2v-1s0-.1-.1-.1-.1-.1-.2-.1l.3-.4-.1-.1.9-.7v-1.1l.2-.2c.1-.4 0-.9 0-1.3l.2-.2v-1.2l.1-.1.4-.1v-.4l-.2-.2.2-.2v-.6l.3-.3v-.8l.5-.1-.3-.2v-1.2l.3-.2v-.4l.3-.2v-1l.2-.2c0-.2 0-.3.1-.4l.3-.3v-1.2l.2-.2v-.6c.3-.2.2-.5.5-.7v-1.2l.2-.2-.2-.2.3-.3v-.9l.2-.2v-.6l-.3-.3.3-.3-.2-.2c-.1-.2.2-.3.3-.6v-.5l.5-.4v-.4c-.1-.1-.2-.1-.2-.2.1-.1.2-.2.2-.4.1-.2.3-.4.3-.6 0-.3.3-.4.5-.7v-.1c-.1-.3.2-.4.3-.6 0-.3.4-.3.5-.5l-.2-.2v-.5l.5-.8c-.1-.2-.4-.3-.3-.5.1-.1.2-.2.3-.2v-.4l.2-.2v-.8l-.2-.2.3-.4-.3-.3.3-.3-.6-.3c.1-.1.2-.1.3-.2-.4-.2-.2-.5-.3-.7l-.4-.4v-.2c-.1 0-.3-.1-.4-.1-.2-.1-.3-.2-.5-.4h-1.5c-.1.2-.5.2-.7.4s-.5.4-.9.5c-.5.2-.6.6-.8.9v.7l-.3.2v.4l-.3.2v.3c-.2.3-.4.6-.5.9v.3l.2.2-.2.2v.6a1.38 1.38 0 0 0-.3.4c-.1.1-.2.2-.2.3l.2.2v.8l-.2.2v.8l-.3.3v1.2l-.2.2v1.6l-.5.7v.9l-.5.7.2.2v.6l.2.2v.4c-.3.2-.6.5-.9.7h-.3c-.2.2 0 .3.2.5v1l.2.2c0 .2.1.3-.1.5l-.4.1v1.3l-.3.2v.6l-.3.3.2.3c-.1.1-.1.3-.2.4s-.1.2-.2.3l.5.1-.3.3.3.3-.2.2.3.2-.5.3.5.7c-.2.1-.3.3-.2.4.1.2-.3.3-.3.5.1.2-.1.3-.3.4v1.2s0 .1-.1.1l-.4.1v.6l-.2.2c.1.2.4.2.5.5h-.6c-.4.3-.4.7-.9.9v.4l.7.6-.2.2v1l-.3.2v1.2l-.3.2v1.8l-.3.3c0 .2.4.3.2.6-.1.1-.2.1-.3.2s-.1.4-.3.5c-.1 0 0 .2 0 .3s-.1.1-.1.2l-.3.1c-.2.3.1.6-.2.8h-.5c-.2.1-.3.4-.7.4l-.5-.2-.5.4h-1.2l-.2.2h-.3l-.4.4h-1.4c-.2.1-.5.1-.7.2s-.3.3-.5.3l-.9.3c-.1 0-.1.1-.2.1h-.4c-.3.1-.5.2-.7.3v.2c-.1.1-.2.1-.3.2-.2.1-.5.3-.7.3-.4.1-.4.4-.8.4-.2 0-.2.2-.2.3s-.2.2-.2.2v.5l-.4.6-.3-.3c-.2-.1-.8-.3-1.1-.4-.1 0-.1 0-.2-.1v-.2c.1-.1.2-.1.3-.2v-.1l-.7-1.2.2-.2-.5-.4.3-.2-.5-.2c.2-.1.3-.3.2-.4l-.4-.1.3-.5-1.2-.8c-.3-.3.3-.4.2-.7l-.2-.1.2-.2c-.1-.1-.2-.2-.3-.2v.6l-.2-.2V195l-.4-.1-.3-.3.3-.3c-.1-.2-.2-.3-.3-.5s-.4-.3-.3-.5-.2-.3-.2-.4v-1.7l.2-.2v-.6l-.2-.2.2-.2v-.6l-.3-.2v-.4l-.3-.2v-.1c.1-.1.1-.2.2-.3l-.5-.9-.3-.1-.4-.6.4-.3h.3c0-.1.1-.2.1-.4l.5-.4v-1l.2-.2-.5-.3v-.6l-.3-.2v-.6c-.2-.2-.3-.5-.5-.6-.2-.2-.6-.2-.8-.5v-1.2c.2-.2.4-.3.5-.6.1-.2.3-.4.5-.6l-.3-.5.3-.3v-.6l-.2-.2.2-.2c.2-.3-.2-.4-.3-.7.2-.3-.3-.5-.3-.8l.5-.5-.5-.1v-.7c-.2-.1-.4-.2-.4-.4s-.3-.3-.3-.5v-.3c-.3-.3-.6-.5-1-.8 0 0-.2.1-.3-.1l.4-.1c.1-.2 0-.3-.2-.4l.3-.3c-.5 0-.8-.2-.8-.6l-.7-.6v-.5c0-.1 0-.1.1-.2l.4-.1v-.4c-.2-.5-.8-.9-.8-1.4l-.5-.6c-.3 0-.5.1-.5.1-.3-.4-.1-.6-.3-.7l-.3-.1-.2-.4-.3.2c-.3 0-.6.1-.8-.1 0-.1-.1-.2-.2-.4-.1 0-.3.1-.4.1s-.1.1-.2.1-.2.1-.3.1v.2l.2.2-.2.2c0 .2.1.4-.1.5l-.4.1c-.1.4-.4.6-.7.8-.2 0-.4-.1-.6.1l-.1.4-.5-.1.3-.3-.1-.1H365l-.3-.2h-.7l-.3-.4c-.3-.1-.5 0-.7-.1l.2-.2-.3-.5h-.5l-.2.2-.9-.4-.5.2c-.4-.1-.4-.4-.7-.4s-.4-.3-.7-.4h-1.5c-.4-.5-1.3-.5-1.7-1H354l-.3-.4h-.7l-.3-.2h-1.2l-.2-.4h-.8l-.7-.6h-1.6l-.3-.2c-.6.1-1-.2-1.5-.2-.1 0-.1-.1-.2-.1h-1l-.5-.4-.3.2-.1-.1v-.4c-.2-.2-.4-.3-.7-.4s-.3-.4-.4-.6l-.3.2c-.2 0-.4.1-.6-.1l.5-.4v-.4l.2-.2-.3-.3.3-.3v-.6l-.2-.2.2-.2-.2-.2v-.4l.2-.2-.2-.2c0-.2-.2-.4.1-.6.2 0 .4.1.6-.1 0-.2 0-.3.1-.5l.9-.3c.3-.2.5-.4.8-.5.1-.1.1-.2.1-.3h.5l.3.2.3-.5.6.3.4-.2.2.2h1l.3-.2h.5l.2.1c.4-.2.9-.2 1.3-.4l.4.2h.7l.3.2c.2 0 .5 0 .7-.1.3-.2.7-.4 1.1-.3l.3.2h1.2c.2-.1.3-.2.4-.2l.4.2.2-.2h1l.2.2h.8l.2.2.8-.4h2l.2.2h1.4l.9.4h.9l.3.2 1.1-.5.7.3c0 .1.1.2.1.3.3 0 .5 0 .7.1.4.2.8.4 1.3.5.2 0 .3-.3.6-.2l.3.2h.8l.2.2h.8l.2.1c.4.2.4-.1.6-.1l.3.2c.2-.1.3-.2.5-.2a.55.55 0 0 0 .5-.3c.2-.2.5-.1.6-.3.2-.1.1-.3.3-.4.1-.1.2-.2.3-.2.1-.1.4-.1.4-.2.1-.1.1-.2.2-.4s.3-.4.5-.6a1.38 1.38 0 0 0 .3-.4l.4-.1v-.7l-1.2-1c0-.2 0-.4-.2-.6-.1-.1-.2-.3-.3-.4-.2 0-.5.1-.6-.1v-.2l-.6-.3c-.2 0-.4-.1-.5-.2-.3.1-.4-.3-.6-.2-.1.1 0 .3-.2.3-.2-.4-.7-.4-1-.6l-.2.2-.3-.2h-.7l-.3-.2h-.5l-.3.2-.7-.6-.3.2-.3-.2c-.3 0-.5 0-.8-.2-.1.1-.2.1-.3.2h-.7c-.2-.1-.3-.3-.5-.2l-.4.3-.4-.2-.3.2-.2-.2-.6-.1-.1-.3-.6-.1c-.2-.1-.3-.4-.7-.4l-.6.4h-1.5l-.5.4h-.6l-.2-.2-.2.2-.8-.3-.8.4h-.6l-.4.2-1-.4h-.7l-.4.2-.5-.3c-.3.1-.3.3-.6.2l-.3.2-.3.2h-.5l-.2-.2-.2.2h-2l-.2.2c-.4.3-.6-.2-1-.2l-.3.2-.8-.4-.3.2h-.4-.2c-.4.2-.7.3-1 .4h-.1l-.5-.4h-.5l-.3.2-.3-.2h-.7l-.2-.2-.3.2c-.2 0-.4.1-.6 0l-.1-.3-.4-.1c0-.2 0-.4-.1-.5l-.3-.3-.3.2c-.1-.2-.3-.2-.4-.4 0-.1-.2-.3-.3-.4-.2 0-.4-.1-.6.1l.2.3c-.1 0-.2.1-.3.1-.4-.3-1-.5-1.4-.9l-.3.4-.9.2-.1-.1-.7.5v.6c-.3.3-.3.8-.9.8 0 0 0 .2-.1.3-.2.2-.9.5-1.5.5l-.3.4h-.8l-.5-.2-.3.2h-1.6c-.1 0-.2 0-.2-.1l-.2-.1h-1l-.4-.3-.4.2-.4-.2-.4.2-.2-.2c-.3 0-.6-.1-.8 0l-.2.2h-.8l-.3-.3-.4.2c-.2-.1-.3-.1-.5-.2-.1 0-.3 0-.4-.1l.5-.2c-.2-.2-.4-.1-.6-.1l-.3.2c-.1-.4-.6-.6-.9-.9v-.2c-.4-.2-.9-.3-1.2-.6-.1-.2.1-.4-.2-.6-.3-.1.1-.5-.3-.6l-.3.2-.3-.3.3-.3c-.1-.1-.2-.3-.3-.4s-.1-.3-.2-.4l.2-.2c-.1 0-.2-.1-.4-.1s-.3 0-.4-.1v-.1l-.9-.8-.2.1-.5-.4h-.7l-.3-.2-1.7.7v.2c-.5.3-.5.8-1 1l.2.2v.4l-.5.7.2.2-.5.4v.9c-.5.3-.5.7-.9 1-.4.2-.9.3-1.2.5h-1l-.2-.2-.3.2h-.6l-.3-.2-.3.2h-.7c-.1.1-.2.1-.3.2h-2.8l-.2.2h-1.8l-.2.2c-.3 0-.6.1-.8-.2h-1l-.3-.2c-.3.1-.6-.1-.8.1l-.1.4-.3-.2-.2.2-.4-.2-.3.2h-1l-.2-.2-.3.2h-.5l-.3-.2h-.5l-.3.2h-1l-.3-.2h-1.6l-.6-.2-.3.2h-.7l-.3-.2-.4.1.3.3-.3.1c-.2 0-.3-.3-.6-.2l-.3.2h-1.2c-.2.1-.3.3-.5.2l-.4-.3-.5.3h-.6l-.9.4-.3-.2-.7.3-.3-.5h-.5c-.3.3-.8.3-1.1.5-.1 0-.2.1-.3.1l-.9-.4-.2.2h-.8l-.2-.2-.9.4h-.9c-.2.2-.6.2-.8.4-.1.1-.3 0-.5 0l-.3-.2H275s-.1 0-.1.1-.1.2-.1.5c-.3-.5-.7-.5-1.1-.8l-.3.2c-.8-.4-.8-.4-1-.8h-.9c-.2-.3-.4-.5-.5-.8-.1-.2-.3-.4-.4-.4-.4 0-.5-.4-1-.5h-.5l-.5-.4c-.2 0-.4-.1-.6.1l.2.3H267l-.2-.2-1.7 1.4v.4l-.6.3-.2-.2h-.3l-1 .4c-.3 0-.3-.3-.6-.2-.2.1-.3.3-.6.2-.2-.3-.7-.4-1-.6-.4.1-.7-.2-1.1-.3 0-.1-.1-.2-.1-.3-.1 0-.3 0-.4.1s-.2.2-.4.2l-.4-.3-.4.3h-.5l-.3.2-.3-.2-.2.2c-.1-.1-.3-.2-.5-.2s-.3-.3-.6-.2l-.8-.7c-.2 0-.3 0-.5-.1 0-.1-.1-.2-.1-.3h-.6l-.3.2-.1-.1.1-.4-.3.2-.2-.2h0l-.2-.2h0v-.4c-.4.1-.4.1-.6-.2l-.3-.3v-.2l-.1.1-.6-.5h-.1c0 .1 0 .2.1.3h-.2c-.1-.2-.1-.3-.2-.5h-.5v.1l-.2-.3-.4.2c0-.1-.1-.2-.1-.3-.1.1-.1.2-.1.3l-.1-.2-.1.1v-.1h-.2l-.1-.1v.1h-1.1l-.3.2-.3-.2-.2.4h-.2l-1.2 1v.3c-.1.3-.4.4-.5.6l.1.1c-.1.1-.1.2 0 .3l-.2.1h-.2l-.1.1h0 0v.1l.2.2-.2.2h0c-.1 0-.1 0-.1-.1v.2h.1v.1c0 .1.1.2.2.3 0 .2-.2.4-.4.4l.5.2-.2.2v.1l.4-.2c0 .2-.1.4-.1.6h.2 0l-.3.1c0 .1.1.3.1.5l.2-.3c0 .2.1.3.1.4h.2c.2 0 .3.1.2.3 0 .1 0 .2.1.2.1.1.2.2.3.4.1 0 .4 0 .4.1.1.2.3.2.5.3.3.2.6.4 1 .5.3.1.4.3.3.6v.2c0 .3.1.6.1.9l-.3 2.2c-.1.4.1.8.4 1.1.2.2.5.3.8.3.4-.1.6-.3.6-.6v-.7c0-.3-.2-.6-.1-1l.4-2.3c0-.1 0-.1.1-.2.2.1.4.2.6.2.3.1.6.2.8.4s.6.2.8.4l.3-.2.8.3.1.3h.8l.2.2h1l.3.2h.2s.1 0 .1.1l.1.3h1l.4.2h.7c.2.1.3.1.4.2.1 0 .2.1.3.1v.2l.7.3h.4c.2.3.7.4 1 .6l.2-.2c.1.1.2.1.3.2s.2.3.3.4h.3l.4.3-.3.3.3.1c.3-.1 0-.4.4-.4 0 .2.1.4.1.6h.5c.2.1.3.3.5.2l.3-.2c.5.4 1.4.3 1.5 1 .1.1.4 0 .4.2l-.4.1a1.38 1.38 0 0 0 .3.4l.7.4v.6l-.3.3c.2.2.3.4.3.7 0 .2.2.4.3.5.2.2.1.5.4.6v.8l.3.2c0 .6 0 .6-.1.7l-.3.1c-.2.3 0 .5.2.7v2.7l-.5.4.2.2v1.2c-.3.2-.3.6-.6.7h-.3l-.2-.4-.8.4-.5-.4h-.7c-.2-.2-.6-.2-.8-.4l-.3.2c-.1 0-.2-.1-.3-.1s-.1-.1-.2-.1-.2-.1-.3-.1v-.2s-.1 0-.1-.1h-1l-.2-.2-.6.3-.4-.5-.3.2h-1.3l-.3-.2h-.7l-.2-.2H256s-.1 0-.1-.1l-.1-.1h-1.6c-.1-.2-.4-.1-.5-.2-.2-.2-.4-.2-.7-.2-.2 0-.3-.2-.5-.2l-.6.3c-.3-.1-.5-.1-.8-.1 0 0-.1 0-.1-.1s.1-.2-.6-.2h-.8 0-.2c-.3 0-.6-.1-.9-.2-.2-.1-.6-.1-.6-.3h-.4c-.3.1-.7.2-1 .2l-.2-.1h-.7 0 0l-.2-.1h-1l-.1.1c-.3 0-.6-.2-.9-.3l-.9.3-1.1-.1h0 0s0-.1-.1-.1l-.3.1a.76.76 0 0 1-.4-.2c-.1-.1-.4-.2-.6-.2h-.6c-.2-.1-.3-.1-.5-.1l.1.3h-.7l-.4-.3-.1.1c-.1 0-.2 0-.2-.1-.2-.1-.4-.1-.5 0 0 .1-.1.1-.2.2h-.2l-.3.2-.1-.1.3-.1-.5-.1.2-.2-1.2-.1-.1.1.5.2h-.1l-.4-.1c-.2.1-.2.2-.4.2l-.1-.1h-.7-.1 0l1-.1-.1-.1h-.3c-.2.1-.6.1-.8 0-.3-.1-.4-.1-.5 0h-.6-.1c-.2-.1-1.2-.1-1.6 0h-.6s-.1 0-.1.1h0c-.3 0-.5.1-.7 0 .1 0 .1-.1.2-.1v-.2h-.4v-.1l-.2.1c-.2 0-.4-.1-.5-.2h-.5c-.1 0-.1 0-.2.1h0-1.4l.4-.2h-.7-.1 0 0s0 .1-.1.1c0 0 0 .1-.1.1l-.6-.1v.1h-.1l-.4-.2h-1.1l-.5-.2-.3.2h-.5c-.1-.1-.2-.1-.3-.2h-.5l-.4-.2-.4.2-.2-.2h-1.2l-.5.2-.3-.2-.3.2-1.1-.5h-2.1l-1.4-.6h-.4c-.1-.1-.2-.1-.3-.2l-.3.2c-.5-.3-1.2-.3-1.5-.8l-.4-.1c0-.1-.1-.2-.1-.3-.5-.1-1 .1-1.4-.1l-.1-.3c-.5-.1-1 .1-1.4-.1 0-.1-.1-.2-.1-.3h-.9l-.2.2-.3-.2h-.5l-.3.2-.3-.2-.3.2-.5-.4h-.8l-.2-.2-.2.4h-.5c-.3.1-.6.3-.9.4h-.5c-.1.2-.4.2-.3.4 0 .1-.1.2-.1.2-.4 0-.5.3-.8.4-.4-.1-.3.2-.4.4l-.2.2v.4l-.5.4v.6l.2.2c-.4.6-.4.6-.5 1l.2.2-.2.2c0 .2-.1.3.1.5a.37.37 0 0 1 .4.3c0 .1-.2.2-.3.3-.1.4.3.6.4.9.2 0 .4-.1.6.1v.4l.5.4-.2.2c0 .2-.1.4.1.5l.3-.2c.4.1.3.5.6.7v.4l.6.5c.2 0 .4-.1.6.1l-.2.2c.1.3.5.3.7.4.3.2.3.5.5.7l-.2.2.8.6c-.1.3.4.4.5.7s.3.5.3.8c.6.5.7 1.2 1.1 1.6.2.4 0 .6.3.9.2.2-.1.5.2.7l.3-.2.4.3-.5.2v.6l.4.7-.2.3.5.8c-.1.1-.3.2-.2.4.1 0 .3 0 .4.1.1.2.4.1.5.2l-.2.3.4.6.3.1.6 1v.4l.3.4-.3.3v.5l.8.5-.2.3.2.2-.2.2c.2.1.4.3.5.4 0 .3.4.4.3.6.4.3.2.6 0 .9l.4.1v.5l.8.1-.7.3.7.4-.2.3-.4.1c0 .1-.1.3.1.3.2-.2.4-.3.6-.1v.4l-.4.3h-.8c-.1.1-.3.3-.5.2l-.3-.2h-.7l-.2-.2-.4.2-.4-.2h-.8l-.2.2-.3-.2h-.5l-.3-.2h-.7l-.9-.4H203c-.2 0-.4.1-.5 0-.3-.2-.6-.2-.9-.3-.1 0-.1-.1-.2-.2H200s-.1 0-.1-.1l-.1-.4h-1l-.3-.2h-.5c-.2-.3-.5-.2-.8-.2l-.5-.4c-.2.1-.3.3-.5.2l-.5-.4c-.2 0-.4.1-.6-.1l.4-.3c-.6.2-.9-.1-1.2-.2-.2.1-.3.3-.7.2l-.2-.2c-.5-.2-.8 0-1-.2 0-.1-.1-.2-.1-.3l-.7-.1v-.4l-.3-.2v-.5c-.2-.2-.3-.4-.4-.6s-.2-.4-.4-.6l.5-.1v-.2l.5-.4-1-.4v-.6l-.2-.2v-1.3l.2-.2v-.4l.3-.2v-.4l.2-.2-.2-.2.2-.2v-.6l.8-.5v-.7l-.5-.2.5-.4-.2-.2v-.9l-.5-.3c.1-.1.1-.2.1-.3l.3.2.1-.6.4-.1v-.4l-.2-.2.2-.2c-.2-.2-.4-.3-.1-.5l.4-.1c.1-.3.1-.5-.2-.7 0-.3.1-.6.1-.9h.1l.3.2c0-.1 0-.2.1-.3v-.4c0-.1 0-.2-.1-.3l-.4-.1c-.1-.3-.4-.6-.3-1 0 0-.1-.1-.1-.2h-.4l-.7-.3c0-.2 0-.3-.1-.5l-.2-.2v-.6c.5-.2.9-.5 1.1-.9h.3l.4-.3-.2-.2.2-.2-.3-.2V169s-.1 0-.1-.1l-.3.2-.3-.6.5-.1-.7-.4v-.4c-.2-.1-.3-.2-.2-.4s-.2-.3-.3-.4c-.1-.2-.1-.3-.2-.4l.2-.4c-.2-.3-.5-.4-.8-.5v-.4c.2-.1.3-.3.6-.3 0 0 .1-.2.2-.2-.1-.3-.6-.4-.5-.7l.2-.2-.2-.2c-.1-.2 0-.4-.2-.5l-.3-.1c-.2-.2.1-.5-.3-.7 0-.2-.1-.4 0-.5s.2-.3.2-.5.2-.4.3-.5l-.5-.5c.3-.1.7-.2.8-.5s-.1-.4-.3-.6v-.5c-.3-.2-.2-.5-.5-.7v-.1-.1l.2-.2-.7-1.1.2-.2-.5-.7v-.8l.3-.3-.4-.1c0-.1-.3-.1-.3-.3l.5-.1v-.4l.2-.2c-.1-.1-.2-.2-.3-.2l.2-.4h.1c.1 0 .1.1.2.1h0l-.1-.3.3.1-.1-.3-.1.1h-.1v-.2c.2.1.3 0 .4-.2l.1.3c0-.2.5.1.4-.2l.4-.1-.5-.1.2-.4h.1v.3l.3-.3h.2c0-.2-.1-.3-.1-.5l-.3.2-.1-.1.5-.3.1.3c.1-.2.1-.3.2-.3-.1-.1-.3-.2-.3-.3 0-.3.1-.4.5-.3 0-.1-.1-.3-.1-.4l.6-.3c0-.1 0-.2-.1-.3l-.1-.1c.1-.2.1-.5.2-.7h-.4v-.1l-.3.1c0-.1.1-.1.1-.2l-.3-.1v-.1c.3.1.5-.1.6-.3-.3-.2-.5.1-.7.2l.2-.2-.5-.1.3-.1-.3-.1-.2-.4h-.3l.2-.2-.3-.1.2-.4c-.3.1-.5-.4-.8-.1 0-.1.1-.2.1-.3h-.1l-.3.1v-.3l-.3-.1-.2.2-.2-.5h-.2l-.2.2c-.1 0-.1-.1-.2-.1-.1-.1-.2-.2-.3-.2s-.1-.1-.1-.1v-.2l.2.1v-.2-.1l-.3.2-.1-.1c-.1-.1-.1-.2-.1-.3a.76.76 0 0 1 .2-.4l-.2-.3c0 .1-.1.1-.1.1-.1 0-.2 0-.2-.1-.1-.2.1-.4-.3-.5l-.3-.3s.1 0 .1-.1v-.1h-.1c-.1 0-.1.1-.2.1 0-.1 0-.1-.1-.6-.1 0-.3 0-.4-.1s-.3-.1-.4-.1c-.4.1-.4 0-.5-.3 0-.1-.1-.2-.3-.1-.1 0-.2.1-.3.1v-.1c-.1 0-.3.1-.4.1-.2 0-.3-.1-.5.1-.1.1-.2 0-.2-.1h-.3c-.1 0-.3-.1-.4-.1-.2-.1-.6 0-.7.1s-.2.1-.3.2-.3.3-.5.4h-.1l-.1-.1h.1.2l-.1-.1c0-.1.1-.2.1-.2l-.7.1.3.4h-.1l-.1-.2-.2.1c.1.2.2.3-.1.5l-.2-.2c-.1.2-.2.3-.3.5.2 0 .2-.1.3-.1v.1c-.1 0-.1.1-.2.1 0 0-.1 0-.1.1-.1.1-.3.2-.4.3h-.1c0 .1 0 .2-.1.2l-.6-.1-.3.2.3.1-.3.4c.1 0 .2.1.2.2.1.2.2.3.3.5h-.4v.1l.4.1c-.2.1-.5.1-.4.3l-.3.1a1.38 1.38 0 0 1 .4.3c.2.1 0 .2 0 .3h-.3v.1l.4.1h0-.2l.2.1h-.1c.1.2.1.4.2.6l.3-.2c.1.2.1.6-.1.6-.1 0-.2 0-.4-.1.1.1.1.2.2.3v.4c-.3-.3-.3.1-.5.1l.3.1c0 .1 0 .1-.1.2 0-.1-.1-.1-.1-.2l-.2.2c0 .1 0 .2.1.3l-.2-.1h-.1l.1.2.1.1c-.1.2-.2.4-.3.5 0 .1-.2.1-.3.1l.1.3c0-.1.1-.1.1-.1 0-.1.1-.1.1-.1h.1c0 .1 0 .2-.1.2-.4.1-.2.3-.3.5h.2c.4 0 .3.3.5.5.1.1.1.2.2.2.2.1.3.3.2.4l.4.1v.1h.2c0 .1.1.1.2.2h.2l-.2.2v.4l.5.3v.8l.5.7-.2.2v1.4l-.5.1v.6l-.3.2v.4l-.3.2v.6l-.3.2v.4l-.2.2c.2.2.5.3.5.6-.3.3-.7.6-1.1.7l.5.1.4.5v.7c-.4.2-.5.5-.7.8v.6l.3.2v.8l.2.2c-.6.3-.6.8-1 1.2l.2.2c0 .3-.5.4-.3.8l-.5.7v.5l-.3.3.3.4c-.5.2-.5.6-.8.9v.9c-.1.2-.2.4-.3.5-.1.2-.4.3-.5.6l.3.3c-.1.1.1.3-.1.5-.2.1-.1.3-.1.5s-.3.2-.3.4-.1.3-.2.4v2.2l-.5.7c0 .2.1.4-.1.6l-.4.1v.3c.1.1.3.2.2.4l-.3.3v.9l-.7.1v.7l-.3.2v.4c-.3.1-.6.2-1 .2l.2-.3c-.3-.1-.6-.1-.8 0-.1.1-.2.1-.3.2h-.5c-.1 0-.2.1-.3.2h-.5l-.4.6h-.7c-.1.2-.4.2-.6.3v.1l.2.1c-.3.3-.4.7-.7.8v.3c.1.1.1.2.2.3-.2.2-.5.3-.5.6l.3.2v.6c.2.1.2.2.3.4s.4.2.4.4l-.2.2.7.5v.7c-.1.1-.3.2-.1.3h.5l.4.3-.2.2.3.5.3-.2c.3.7.6 1.3 1.3 1.8v.8l-.3.4.2.3-.2.4.3.3v.4l.3.3-.6.3v.9l-.5.1c0 .2-.2.4.1.5l.3-.6v.9c-.1.1-.2.2-.3.2v1l-.2.2v.8l.2.2-.2.2.2.2c-.2.1-.3.3-.5.4v.4l-.2.2v.9c-.2.4-.5.8-.6 1.3-.2.1-.5.1-.7 0l-.7-.3c0-.2.1-.3-.1-.5l-.3.2c-.1-.2-.2-.3-.4-.5-.1-.2.1-.4-.1-.5l-.4-.1-.1-.5-.5-.1v-.2l-.5-.5v-.4c-.5-.3-.6-.8-1-1-.1 0 0-.2-.1-.3l-.4-.1-.6-1.1a.55.55 0 0 0-.5-.3c-.1 0-.2-.1-.3-.2l.3-.3c-.2-.2-.5-.1-.7-.4-.2-.2-.4-.3-.6-.5v-.4l-.3-.3c-.2-.1-.1-.3-.2-.4-.2-.1-.5.1-.7-.2l.6-.2-.4-.1a1.44 1.44 0 0 0-1.1-.9l.2-.2-.3-.5h-.3l-.6-.5.2-.2-.7-.5-1-1.7-.3-.2c-.1-.3.1-.6-.1-.7l-.4-.1-.1-.5c-.3-.1-.7-.1-.7-.4-.1-.3-.4-.4-.5-.7v-.3c-.2-.2-.2-.5-.5-.7s-.2-.5-.5-.7c.1-.4-.5-.4-.5-.8 0-.1-.1-.1-.1-.2h-.2c-.3-.3-.4-.8-.8-1.1-.2-.2-.3-.4-.3-.6-.1-.3-.5-.3-.5-.7 0-.2-.2-.3-.3-.5 0-.2-.2-.4-.3-.5-.3-.2-.5-.3-.7-.4v-.8c-.1-.2-.2-.4-.4-.6l-1.2-.9v-.4l-.4-.3h-.3l-.4-.3c.1-.4-.3-.6-.4-.9l-.4-.1v-.4l-.8-.5v-.6l-.5-.1v.2l-.1-.1c-.1-.2-.5-.2-.7-.4.1-.3-.4-.4-.3-.6 0-.1-.2-.2-.3-.2-.1-.1-.3-.1-.4-.2s-.2-.2-.4-.3c-.1-.1-.3-.1-.4-.1v-.2c-.6-.4-.8-1.1-1.2-1.6h-.2c-.2-.4-.6-.7-.8-1.1l.2-.2c-.2-.2-.4 0-.6-.1a1.38 1.38 0 0 0-.4-.3l.2-.2c-1.1-.4-1.1-.4-1.4-.9h-.2l-.6-.5.2-.2c-.3-.2-.8-.1-.7-.6-.3-.3-.3-.7-.8-.9v-.4l-.2-.2.6-.9.3.2a.37.37 0 0 0 0-.6c-.4.2-.4.2-.7 0l.5-.4v-1.1l-.2-.2c.1-.1.2-.3.3-.5l-.9-.6c.1-.4-.4-.7-.3-.9-.3-.3-.4-.5-.5-.7h-.6c-.1-.1-.1-.3-.2-.4h-.5l-.3-.2h-.5l-.3-.2a.76.76 0 0 0-.2.4h-.3c-.1-.1-.1-.3-.2-.4l-.5.4h-.9l-.6-.6c-.3-.1-.6.1-.7-.1l.3-.2-.5-.2c-.2-.1-.4-.6-.9-.6l-1-.8h-.5l-.3-.2-.3.3c-.1-.2-.3-.3-.4-.5-.4 0-.6 0-.8.2h-1.1l-1.2.5c0 .2 0 .3-.1.5l-.5.4v.4l-.3.2v.6l-.2.2c-.1.4.4.7.3 1.1.2.2.5.4.5.7l.5.1v1.4l.5.3v.7l.2.2c0 .2.2.4-.1.5s-.3-.1-.5-.2l-.6.5-.1.3h-.6l-.5.6-.5.1v.2l-.5.2c0 .1-.1.2-.1.3l-.6.1c-.1.4-.4.6-.7.8h-.6l-.3.4c-.5.1-.9-.1-1.2.1v.4c-.3.1-.5.2-.7.3-.1 0-.2 0-.2.1-.1.1-.1.3-.3.4s-.3.3-.5.4.1.4-.3.4l-.2-.1-.4.4h-1.6l-.3.2-.3-.2c0 .1 0 .2-.1.3-.1.2-.5.3-.5.6l-.1.1c-.4 0-.5.4-.8.4s-.3.1-.4.3c0 .1-.3.2-.2.4l-.9.8-.3-.2c0 .1-.1.2-.1.3l.3.3c-.9 0-1.5.5-2.3.7 0 .1-.1.2-.1.3l-.5.1-.3.4h-.6c-.1.4-.4.6-.7.8h-.6l-.3.4h-.6l-.9.8h-1.3s-.1 0-.1.1c.1.1.2.1.2.2l-.9.7h-.2c-.2.1-.4.4-.5.6h-1.3l-.5.4h-.8c-.1.2-.1.3-.2.4h-.3c-.2.4-.7.4-1 .6l-.2-.1-.6.4c-.1.3 0 .4-.2.6h-.2l-.3-.2-.2.2c-.2.1-.4.1-.5.2h-.2-.3l-.3.5.2.2-.5.1-.1.3-.4.1c-.1.1.1.3-.2.3-.2 0 .1-.4-.3-.3 0 .2-.1.4-.1.6h-1.3c-.3.2-.8.3-1 .6H87c-.3.2-.5.4-.7.6h-.5l-.5.4h-.5l-.4.3v.2l-.7.3H83c-.2.2-.4.3-.6.5s-.5.1-.7.4-.6.3-.9.4c-.3 0-.6.2-.9.3s-.2.4-.5.6h-.2c0-.1-.1-.1-.1-.2s-.1-.1-.1-.3l-1 .8c-.4 0-.7.3-1.1.2-.4.4-1 .6-1.6.7l-.2.2h-.5l-.3.2H74l-1.2 1-.8.3-.3-.2c-.3.3-.7.5-1.1.6-.3.1-.5.2-.5.4-.1.3-.4.4-.6.6l-.5-.2-.5.7c-.3 0-.5-.1-.7.1l-.1.3-.5-.3c-.2.2-.4.4-.6.4-.5.1-.6.4-.8.7h0c-.5.1-.6.4-.9.4-.2 0-.3-.3-.6-.2-.1.1-.1.2-.2.3l-.4.1c0 .2-.1.4-.1.6h-.5c-.2.1-.4.4-.6.4-.3 0-.4.3-.7.2-.2 0-.5-.1-.7.1v.2c-.1 0-.3.1-.4.1-.2.1-.3.2-.5.4h-.8l-.2.2c-.3.1-.5 0-.7.1l-.1.3-.7.1c-.1.1.1.3-.2.3-.1-.1-.1-.1-.2-.1h-.1c-.1.2-.1.4-.4.5-.5.2-.9.5-1.4.7l-.3-.2c0 .2 0 .4-.1.6l-.4.3-.2-.2c-.2.1-.3.1-.5.2-.1.1-.3.1-.4.2H53l.1.1-1 .6v.7l-.2.1-.2.1-.3.2v.1.1.2l-.1.1h-.1v.1l-.1.1v.1c-.2-.1-.4 0-.5.2s-.2.4-.4.5l-.2-.1c-.4.1-.5.4-.8.6l.2.2-.2.2c0 .1.1.1.1.2-.1.1 0 .3.1.4 0 0 0 .1-.1.1h0-.1c-.1 0-.3-.1-.4 0-.1 0-.1.2-.1.2.1.1.2.3.4.3h.1 0l-.2.2c-.2 0-.3.1-.4-.1 0 .1 0 .3.1.3.2 0 .5 0 .7-.1h0c-.1.1-.2.2-.2.4h-.1c0 .2-.1.4-.1.5-.2.1-.4-.1-.4.2h.1-.1l.4.1-.3.3.7.5c0 .1 0 .2-.1.3h.1v.1l-.3.1c0 .2.1.4.2.7l.3-.5c.1.2.1.4.2.6h.2.1v.1c.1 0 .1.1.2.1 0 0 0 .1-.1.1 0 .1 0 .2.1.3.1.2.3.3.4.5.2.1.5.1.6.2.1.3.5.3.7.4l1.4.8c.4.2.5.5.4.8v.2c0 .4.1.8.1 1.2l-.4 3.1c-.1.6.2 1.1.6 1.6.3.3.7.5 1.1.4.5-.1.8-.4.9-.8v-1c0-.5-.2-.9-.2-1.4.1-1.1.3-2.2.6-3.2.1-.6.5-1.1 1-1.4h.2l.2.2.3-.2.3.2.7-.6H61l.3.2.3-.2h3l.3.2H66l.2-.2c.2.3.6.1.8.2.3.2.6.3 1 .4.1-.2.2-.3.3-.4l.3.2h.5l.3-.2h1.5s.1 0 .1-.1l-.5-.2c.2-.2.4-.1.6-.1l.3.2.8-.4.2.2.5-.2.3.2.3-.2h.5l.3.2h2l.3-.2.3.2 1-.4.2.2h.5l.3.2.4-.3-.2-.2c.2.1.5-.3.7 0l-.2.2c.1 0 .1.1.1.1.4 0 .7-.2 1.1-.4h.7l.3-.2.3.2h1.1l.4.4.3-.2.4.3-.2.2.1.1h.8l.4-.2.4.2.3-.2.3.1-.3.2 1.7.7.3-.2.8.2c.3-.2.3-.2.6 0l-.3.4.1.1h1.4l.4.4.2-.2c.3.1.4.4.8.4l.4-.3.4.5h.7l.5.2.4-.3c.3.4 1 .4 1.2.8h.3.1c.2 0 .3.2.5.2.2.1.4.3.7.4l.6-.3.1 1c.4-.1.7.2 1.1.3l.9.7.4-.3c.5.6.7.8 1 .8l.3-.2.6.3c.2.1.3.3.6.3.1 0 .1-.1.1-.2s.1-.2.1-.3c.4.2.4.6.7.8.4.1.8-.1 1.1.1 0 .1.1.2.1.3h.8c.3 0 .6-.1.9 0l.3.3c0 .2-.1.4.1.5l.3-.2.4.3-.2.2.1.1h.3l.3-.2c.3.5.9.5 1.3.7 0 .1.1.2.1.3.3.1.4 0 .6-.2l.5.4h.7c.3.1.6.2.7.3.2.2.6 0 .8.2l.1.3c.3.1.7-.1 1 .2l-.5.2c.5 0 .6.4.9.5l.2-.1c.3.1.4.4.8.4l.8.6.2-.1.7.4-.2.2.6.3c.2.1.4.1.7.1 0 .1.1.2.1.3.5-.3.6-.3.7 0l-.5.3c0 .4.2.4.4.3 0-.1.1-.2.2-.4.2 0 .5-.1.7.1l-.2.2a1.38 1.38 0 0 0 .4.3c.3.3.6.6 1.1.8l.2-.2.5.4h.5l.3.2c.2 0 .4-.1.6.1l-.2.2c.3.2.4.5.9.5l.9.8-.2.2c.2.2.4.1.7 0l.2-.4.2.4.6.3.3-.2.2.4.4.1c.1.2-.1.4.1.5l.3.1c.1.1.1.3.2.4l.3-.3.4.4c.4.1.7-.1.9.1v.2l.4.3c.2-.1.3-.3.5-.2l.3.2.3-.3.4.5h.7l.9.8.2-.2.2.2h.6l.2-.2c.1.1.3.2.4.3l-.2.2v.1h.8l.3-.2c.3 0 .5 0 .7.2.1.1.4.2.7.2h.6l.3-.2h.5l.4-.3.4.2.1-.3c.3-.1.6-.4 1.1-.3 0 0 .1-.1.2-.1 0-.2-.1-.3.1-.5l.5-.1c-.1-.2.1-.4-.2-.6s0-.4-.2-.6l-.5-.4c0-.1.1-.3 0-.4s-.3-.2-.3-.4c0-.1-.3-.1-.4-.2s-.3-.2-.3-.4a.78.78 0 0 0-.4-.4.55.55 0 0 1-.5-.3c-.2-.2-.5-.1-.6-.3-.2-.2-.4-.3-.7-.4-.1-.1-.1-.2-.1-.4h-.4l-.4-.4h-.8c-.2-.1-.3-.3-.5-.4s-.4-.1-.5-.2h-.5l-.3-.2-.4-.1-.1-.3h-.8l-.7-.6h-.6l-.2-.4c-.3-.1-.5 0-.7-.1s-.5-.3-.8-.5-.6-.2-.9-.3l-.1-.3c-.5.1-.8-.1-1.1-.3-.9-.5-.9-.5-1.8-.6 0-.1 0-.2-.1-.3s-.5 0-.6-.3c-.3.1-.4-.3-.8-.2l-.9-.7c0-.1-.1-.2-.1-.4-.2.1-.3.3-.6.2l-.4-.3-.4.2-.4-.3c0-.2.1-.3-.1-.5l-.3.2c-.3-.1-.3-.4-.7-.4-.3 0-.4-.3-.7-.4h-.3-.1a.76.76 0 0 0-.4-.2c-.4 0-.5-.5-.9-.4l-.5-.4h-.5l-.5-.4c-.3-.1-.6 0-.8-.2-.3.1-.4-.3-.9-.2l-.7-.7h-1c-.4-.5-1.2-.5-1.7-1-.1-.1-.3-.1-.4-.1 0-.1-.1-.2-.1-.3-.3-.1-.6 0-.8-.2-.3 0-.4-.2-.6-.3s-.5-.3-.8-.4h-1.1c-.3-.1-.5-.1-.7-.2s-.3-.2-.5-.4h-.5l-.5-.4h-.5l-.6-.3-.2.1-.3-.5c-.4 0-.6 0-.9-.1 0 0-.1 0 0 0 0-.1-.1-.2-.1-.3-.3-.1-.7.1-.9-.1l.2-.2c-.2-.2-.4 0-.6-.1l-.3-.2h-.7c-.3-.2-.5-.4-.7-.6h-.1c-.2 0-.5 0-.7-.1l-.2-.1h-.6l-.4-.4h-.6l-.3.2c-.2-.1-.4-.3-.6-.4-.2 0-.4-.3-.6-.2l-.4-.4h-1.1c-.4-.3-.9-.4-1.4-.5l-.4-.4h-.6l-.3-.4c-.5 0-.5 0-1.3-.4h-.2c-.3.2-.5.2-.6.1l.2-.2-.3-.3c-.3.1 0 .4-.4.4l-.2-.4c-.3 0-.6 0-.8-.2l-.3.3-.8-.7h-1.7l-.7-.6-.3.2c-.3.1-.4-.2-.6-.2h-1.1l-.5-.2-.3.2c-.2-.2-.6-.2-.8-.4-.1-.1-.3 0-.5 0l-.3-.2-.4.2-.3-.2-.3.2H78l-.2.2c-.2-.1-.3-.4-.7-.4l-.3.2-.4-.2c-.1.1-.2.2-.3.2h-.6c-.1.2-.1.3-.2.4-.3-.2 0-.5-.3-.6l-.3.2h-.4c-.2-.1-.3-.1-.5-.2l-.4.3c-.3-.1-.7.1-1.1-.1l.2-.2c-.2-.2-.4 0-.6-.1l-.3-.2h-.5l-.3.2-.2-.2h-.8l-.2-.2-.3.2a.76.76 0 0 1-.2-.4c-.2.2-.2.5-.5.6l-.3-.2c-.3-.1-.6.1-.8-.1l.2-.2-.4-.3c-.1.2-.2.3-.3.4h-.5c-.2-.2-.5-.3-.6-.6 0-.4.6-.4.5-.7l-.2-.2c.1-.1.3-.3.5-.3s.4-.3.6-.4c.3 0 .4-.2.4-.4 0-.1.2-.2.3-.3l.3.2c0-.1.1-.2.1-.3a1.38 1.38 0 0 1 .4-.3l.2.2c.2-.3.3-.6.8-.6 0 0 .1-.1.1-.2 0-.2.3-.3.5-.5h.7c.1-.1.1-.3.2-.4.2-.1.4 0 .4-.2l-.2-.2.5-.2-.2-.3h.9c.3-.3.7-.5 1.1-.6.2-.1.4-.2.5-.4 0-.1.1-.2.1-.3h.8l.2-.2c.3-.1.7.1.9-.1 0-.1.1-.2.1-.3.3-.1.4 0 .6.2l.7-.6c.6.1.9-.2 1.2-.3l-.2-.2c.3-.2.3-.6.6-.7.2-.1.4.1.6-.1l.1-.3c.3 0 .5.1.6-.1 0-.1.1-.2.1-.3h.5c.2 0 .3-.2.5-.2.1 0 .3-.2.4-.2.2 0 .4 0 .6-.1.1 0 .1-.1.2-.1.4-.1.5-.3.6-.6l1.4-.6c.1-.1.1-.2.1-.3l.4.3.4-.3c.2 0 .4 0 .6-.1.3-.1.6-.3.9-.5.1-.1.3 0 .4-.2l.1-.3h.3l.3.2c.4-.6 1.3-.7 1.7-1.3h.5c.2 0 .2.3.4.1v-.2l-.3-.2.4-.3h.8c.2-.1.4-.3.5-.5.2-.2.5-.1.6-.3s.5-.2.7-.4c.2-.1.5-.1.6-.3.1-.1.3-.2.5-.2.2-.1.4-.3.5-.4h.7.1c.2-.4.2-.4 1.1-.8h.4c0-.1.1-.1.2-.1.1-.1.3-.1.5-.1l-.3-.3.7-.1c.2-.1.3-.3.6-.4h.3c.3-.1.4-.5.8-.4.3-.3.7-.1.9-.2l.7-.5.1-.3.4-.1.2-.4.3.2.3-.2h.6l.7-.3c-.1-.5.7-.4.9-.7l.3.2.4-.3v-.4l.4-.3.3.2c.1-.2.1-.4.2-.7h.6l.3-.2c.3 0 .5 0 .8-.2l.2.2.8-.6h.3c-.1-.3.2-.5.4-.6s.5.1.6-.1l.1-.3c.2-.1.5.1.7-.2l-.2-.2c.2-.2.4-.1.6-.1l.4-.3-.2-.2c.1 0 .3-.1.4-.1.2-.1.3-.2.5-.4h.7l.3-.2c.2 0 .4.1.6-.1l.1-.3c.2 0 .4 0 .5-.2.2-.2.4-.4.6-.5.5-.1.5-.4.7-.7l.5.2s.1-.1.1-.2v-.1c.6-.4 1.4-.5 1.9-1h.5c.2-.2.7-.2.9-.5v-.2l.7-.3.2.2c.2-.2.5-.3.7-.7.1 0-.2-.3.1-.3l.2.4c.2-.1.4-.2.6-.2 0 0 0-.1.1-.1v-.3l.4-.4.3.4.3-.2.3.2c.1-.1.2-.1.3-.1s.1-.1.2-.1.2-.1.3-.1l-.3-.3h1.2l.4.2.4-.2.4.3c-.2-.5.1-.8.3-1.2l.5.2.3-.2.2.2c.4-.2.4-.2.9-.1l.2.4h.5l.5.4h.5c.2.2.2.5.5.6h.5l.7.6.4.1c0 .1.1.2.1.3l.7.1-.3.3.7.1c.1.3.3.5.4.8l.4.1v.7l.5.1c0 .2.1.3.1.5h.1l.2-.1.4.3v.4l.4.3h.3c.1.2.2.4.4.5a.55.55 0 0 1 .3.5l.4.1-.3.3c.2 0 .3.1.5.1.2.1.3.2.5.3.1.1.3-.1.3.1l-.2.2c.2.2.4.4.7.5h.5c0 .1.1.2.2.3.2.2.3.3.5.4.2.2.1.5.4.6.1 0 .1 0 .2.1l.2-.2c.1.2.2.3.4.5 0 .1.1.2 0 .3 0 .2.3.3.3.5s.3.1.4.2a.78.78 0 0 1 .4.4c.2.2.2.5.5.6.4.2.3.5.6.7v.5c.1.2.2.5.4.6.3.2 0 .5.2.6l.4.1v1.1l.5.4v.7a1.38 1.38 0 0 1 .4.3c.2.2.5.1.6.3l.2.2v.5l.7.3-.2.2.5.2c-.4.1-.4.2-.4.3h.6c0 .4.4.6.7.8.3.1.6-.1.9.1v.3.1l.2.2v.4c.1.2.3.4.4.6.3.3.7.6 1 .9 0 .6.4.9.7 1.4.1.3.6.4.6.7l.8.7.5.1v.6l.2.2.1.3.4.1c.1.2-.1.4.1.5l.4.1a.9.9 0 0 0 .1.5l.7.6v.2l.2.2c.2.3 0 .5.2.8l.4.1v.4l.3.6.9.7v.3l.4.3c.1.2.1.3.2.4h.4c-.2.3.3.4.3.7l.8.7c-.1.4.3.7.4 1.1 0 .1-.2.1-.1.2l.4.1c0 .1.1.2.1.3l.5.1v.4l.5.3v1.1c.1 0 .1.1.2.2 0 .1.1.2.1.3.3 0 .6.2.7.4 0 .3.4.4.5.6l-.2.1c.2.3.3.6.5.8l-.3.3c.4.2.5.6.8.9.2.2.2.6.5.8-.2.3.3.5.3.8.3.2.3.4.3.6l.3.4c-.4.3-.5.6-.1.9.1.1 0 .3 0 .4-.1.1-.4.3-.2.5l.5.1c-.1.2-.2.3-.4.5l.6.3-.3.5v.3l.5.4v.6l-.8 1.3.3.3-.2.2v.6c-.2.3-.5.3-.7.4v.4l.3.3-.8 1.2v1.2l-.3.2v.3l-.4.6-.3.1c-.2.3.1.4.2.4v.7l-.2.2.2.2v.6c-.2.2-.5.3-.5.6l.3.4c-.1.2-.4.3-.3.5l.2.2-.2.2v1.1c-.6.2-.6.8-1 1.2v.2l.3.2v.4l-.2.2c-.1.4 0 .8-.1 1.1-.2.1-.4 0-.5.2.1.1.2.3.3.5l-.3.3v.5l-.2.2c0 .2 0 .3-.1.4l-.2.2.2.2c-.1.1-.2.1-.2.2 0 .2 0 .4-.2.6-.1.2-.1.5-.1.7l-.1.1-.4.1c.2.3.3.5.5.7l-.2.1c-.1.2 0 .4-.2.5l-.4.1c0 .2 0 .3-.1.5l-.5.4.2.2v.4l-.5.4c.1.1.2.2.4.3h.2s.1 0 .1.1c-.2.4-.5.7-.5 1.1l-.2.2v.4c-.2.2-.4.3-.7.4-.1.2-.2.5-.4.7-.3.2 0 .6-.4.8.1.2.5.3.2.5l-.4.1v.8c-.2.2-.2.3-.3.4l.3.3c-.1.1-.2.2-.3.2-.1.1-.3.1-.4.1-.1.2.1.4-.1.5l-.4.1.3.3c-.1.2-.2.3-.3.5l.3.3-.5.2c.1.2-.1.5.1.7l.2.2c-.4.2-.5.6-.7.8.1.1.2.2.2.3-.1.2-.4.3-.3.5l.2.2v.4c-.4.2-.5.6-.8.9v.8l-.2.2c.1.1.2.1.3.2-.3.1-.2.5-.5.6v.7l-.4.2c-.3.5.3.8.1 1.2l-.8.6.5.1.3-.2c.4.3-.1.4-.2.8v.4l-.2.2c.1.2-.1.5.1.7 0 .1.3.1.2.1-.3.2-.6 0-.8.2v.2l.5.1-.3.3v1l-.3.2v1.8.2s0 .1.2.3l.7 1.1h.2l.5.3v.5l.9.4.2-.2.5.6c.2-.2.3-.3.7-.2l.3.3c.4 0 .6 0 .8.3l.4-.5h.3l1.2-1 .4-.1-.2-.3.5-.1v-.3c.4-.1.5-.5.7-.8.2-.2.3-.5.6-.6-.1-.1-.3-.2-.2-.4l.3-.3-.3-.3.5-.2c.1-.3-.4-.4-.2-.7l.4-.1c.1-.2-.1-.3-.2-.5v-.7c0-.1 0-.1.1-.2l.2-.1v-.4l-.2-.2v-.8l.2-.2-.2-.2v-.7l.2-.2-.5-.7c.2-.1.6-.1.7-.4l-.2-.2v-1.1l.5-.4v-.4l-.2-.2c.3-.1.2-.4.3-.6l.4-.4-.3-.4c.1-.2.4-.3.2-.6l-.5-.3.2-.3-.2-.2.2-.2-.3-.2c.1 0 .2-.1.4-.1s.3 0 .5-.2l-.2-.3c0-.2.4 0 .4-.3l-.5-.2c.3-.2.4-.4.7-.5l.5.2.5-.9.4-.1c0-.2 0-.4.1-.5l.2-.2v-.6l-.5-.4.5-.1c0-.3.3-.5.5-.7v-.7l.4.2c0-.1 0-.2.1-.4l-.5-.3v-.5l.8-.7-.7-.4.5-.1.4-.5v-.6l-.2-.2c.1-.2.5-.3.1-.5l-.3.2c-.2-.3 0-.5.1-.7l-.2-.2v-.6l.2-.2-.2-.2v-.7l.5-.3v-.5l-.2-.2c.4-.1.1-.5.3-.7l.2-.2v.6l-.2-.2c.3-.1.2-.4.4-.6s0-.5.3-.7l-.2-.2.2-.2v-.4l.3-.2c.1-.2-.2-.3-.2-.4l.2-.2-.2-.2.2-.2c0-.2.1-.3 0-.5l-.4-.1v-.2l.2-.2v-.5l-.3-.2.5-.1v-.7l.5-.4v-.9l.5-.1-.4-.3.6-.3c0-.2 0-.4.1-.5.3-.3.3-.6.7-.8v-.2c.2-.2.5-.4.7-.6v-.1l-.2-.3.4-.6c.3-.1.5 0 .6-.1 0-.2-.1-.3.1-.5l.4-.1-.2-.2.3-.3.3.2.1-.1v-1l-.2-.2v-.6l.3-.3-.5-.8.4-.1c.2-.2 0-.3-.2-.5 0-.2-.1-.3.1-.5.2 0 .3.3.6.1.1-.2.1-.5 0-.7l-.2-.2.5-.4v-.6c.1-.2.4-.2.3-.5l1.3-1.1v-.7c.2-.3.2-.5.3-.6l.4-.1v-.2l.5-.2-.5-.1.2-.4-.3-.4.3-.3v-.4l-.2-.2.2-.2-.3-.3v-1l-.3-.2v-1l-.2-.2.3-.2-.5-.1c-.1-.3-.4-.6-.4-.9-.2-.2-.5-.3-.7-.4 0-.9 0-.9-.2-.9l-.3.2-.3-.3c-.1-.2.2-.3.3-.5v-.8l.2-.2c0-.2-.4-.3-.1-.5h.2c.1 0 .1-.1.2-.1v-1c.3-.2.6-.6.8-1 .2-.6.2-.6.8-1.1v-.4l-.2-.2v-.4l.2-.2-.2-.2v-.6c.2-.2.5-.3.7-.4l-.2-.2.3-.3-.3-.4.5-.7v-.6c.3 0 .5-.2.7-.4v-.2c.5-.1.8-.5 1.2-.7l.2.4.2-.2c.2 0 .3.1.5.2.3.2.6.4.8.6.2-.1.3.1.5.2.2-.1.3-.3.5-.4.1.3.2.5.6.6.3.1.6.3.9.2.1.1.2.1.3.2.1.3.6 0 .6.4 0 .2.2.4.3.6.2.3.3.6.5.9a.9.9 0 0 1 .1.5l.2.2-.3.3.5.8-.2.2.2.2v.4l-.5.4.3.2v1.4l.5.4v1.2l.2.2v.5c0 .1 0 .1-.1.2l-.2.1v1l-.3.2c.2.1.2.3.3.4l.4.4-.3.3v.8l-.2.2.3.3-.3.5c.2.2.4.5.2.7l-.2.3.3.3c-.1.1-.3.2-.2.5l.5.3-.5.2c.2.2.2.4.2.6l-.3.2v1c.1.1.2.1.2.2v1.6l-.3.3.2.3-.2.3.3.3-.2.2.2.2-.3.2v1.2l-.3.3c0 .2.3.4.3.6s.4.4.2.8l-.2.2v1l.3.2v1.6l.2.2.3.7-.4.4v.8l-.3.3.3.3c-.1.1-.1.2-.2.4 0 .1 0 .3-.1.4h-.5c-.1.3-.4.5-.6.7v.4c-.3.2-.4.4-.7.5h-.5c-.1.3 0 .6-.3.8 0 .4-.5.4-.7.5 0 .1-.1.2-.1.3l-.5-.2-.4.6.3.3h-.6l-1 .7v.2c-.2.1-.5.2-.7.4s-.6.2-.8.5v.4c-.2.2-.4.3-.7.4s-.3.4-.4.5l-.4.1c0 .1-.1.2-.1.3-.3.2-.7-.1-.9.1v.5l-.8.3c-.1 0-.1.1-.2.1a1.38 1.38 0 0 1-.4.3h-.5c-.5.7-.7.8-1.6 1.1-.4.1-.9.2-1.1.7-.1.2-.4.4-.6.5-.1.1-.4.1-.4.2a.76.76 0 0 1-.2.4c-.1.1-.1.3-.2.3-.1.1-.3.2-.4.4v.6c-.2.2-.4.4-.6.7-.1.2-.4.4-.7.6l.2.1-.5.4.3.3-.2.2v.7l1.3 1v.2c.2.2.6.1.7.4l-.2.3h1.3l.3.4h.8c.1.1.3.1.4.2h.4l.3-.2c.2 0 .5 0 .7.1s.4.1.6.3h.2c.2-.2.2-.5.6-.6l.7.3.4-.4c.1-.1.4-.1.5-.2.2-.2.2-.4.3-.5.2-.2.2-.4.5-.4.3-.1.3-.4.4-.5l.4-.1-.2-.3.5-.1v-.5l.7-.4 1.1-1.7-.2-.2.7-.1.4-.4c.1-.1.4.1.3-.1l-.2-.2c.2-.1.2-.3.3-.5l.4-.1v-.8c.3-.3.8-.5.8-.9.4-.5 1.1-.6 1.7-.9.1.2.1.3.2.5l.4-.6c.3.2.1.4.2.5l.3.2v1s.1 0 .1.1l.4-.3c-.1.3.1.5.3.6s.1.4.4.5.3.4.5.6h.5c.2.1.4.3.6.4.3-.1.4.4.8.2.2 0-.1-.4.3-.4l.2.4h1.6c.1-.3.2-.5.5-.6h.6c-.1-.4.3-.5.5-.7v-.4l.3-.2c.1-.2-.2-.3-.2-.4.2-.1.2-.3.2-.4s.2-.4.2-.5a.55.55 0 0 1 .3-.5c-.1-.2.1-.5-.1-.7l-.2-.1v-.8l.2-.2v-.4c-.1-.1-.2-.2-.4-.3-.1-.1-.3.1-.3-.2l.2-.2v-1.7l-.2-.2.4-.5-.7-.3.2-.2c.2-.2-.1-.6.2-.8.2 0 .4.1.6-.1v-.7l.7-.1v-.4c.2-.3.5-.4.8-.5v-.4l-.2-.2.3-.3h.5c.3-.2.6-.4.8-.7.2-.2.5-.3.6-.6s.5-.5.7-.7v-.4c.3-.1.6-.2 1-.4 0-.1 0-.3.3-.4.4-.2.7-.4 1.2-.4.3-.2.6-.4.8-.7.2-.2.2-.5.4-.7l.3-.3.2.1 1.2-1c0 .1 0 0 0-.1.3 0 .5-.1.7-.3s.4-.3.5-.4c.2-.2.5-.1.7-.4.2-.2.4-.3.6-.5v-.1c.2-.3.7-.3.9-.5l.3.2.6-.5c.2-.2.5-.4.7-.6.2-.1.2-.4.4-.5l.3.2c.1-.4.2-.7.5-1h.3l.4-.4c.4-.1.7.1.9-.1.1-.2-.1-.3-.2-.4 1-.2 1.4-.4 1.5-.7v-.4l.7-.3c.1.1.3.2.5.1.1-.1.1-.2.2-.4l.6.4.5-.3.5.2.2-.1-.2-.2v-.4l.4-.3a.76.76 0 0 1 .2.4l.4.1c-.3.2-.2.5-.5.7l.1.1.5.1c-.4.2-.3.4-.3.7.4.2.5.6.7.9v.4l-.5.1.3.3c.1.2-.5.2-.2.4l.4.1c.1.2-.1.5.3.7l-.6.5.8.7c0 .1 0 .4-.2.5v.7l-.2.2v.4l-.3.3.8.1v.7l-.2.2v2.3l.3.3v.9l.3.4-.3.3.5.2-.2.2v1.7l.2.2-.2.2v2.1c.1.1.3.2.4.3 0 .1.1.1.1.2l-.3.3v.6c-.1.1-.2.1-.2.2-.1.2 0 .5-.3.7 0 .2-.1.3.1.5l.3-.2.4.3v1.5l-.3.2v.6l-.2.2v1.3l.2.2-.2.2.5.5-.3.3.2.2v.4h-.1c-.1.1-.2.2-.3.4l.3.3h-.3l-.1.2-.2-.2c-.1.1-.2.2-.4.1l-.3-.1v.1c.1 0 .3.1.3.3v.1c0 .2.2.2.2.3l.3-.1v.1l-.4.2-.2-.2h-.1c.1.3.1.3.3.2v.6h0c0 .1-.1.2-.1.3-.1 0-.2-.1-.2-.1l-.1.1c.1 0 .1.1.2.1.2 0 .2.1.2.2s0 .2.1.3h.1v.2l.3-.2v.3l-.1-.1-.2.1c.3.2-.1.2-.2.3h.6c-.1-.1-.1-.2-.2-.3l.1-.1.2.1.3-.2v.4c.1-.3.3-.1.5-.1-.1.1-.2.1-.3.2s-.2.1-.1.2c0-.1.1-.1.1-.2l.4.2h0c.2.1.4.1.5.1l.1.1s0 .1.1.1l.2-.1h.1c0 .1 0 .2.1.3v.1l.3.3h0 0 .1c.2.2.5.3.7.4-.2.1-.2.1-.1.5l.1-.4h.1l.2.4c.1-.1.2-.1.2-.2v-.1c.1 0 .1.1.2.1l.1.1c-.3.3-.3.3 0 .5l.2-.1h.2.4l.4.3.3-.3.3.2h0c-.1.3-.1.3.2.5-.2-.4.2-.2.4-.3l-.4-.2h.3l.3-.2h.4l-.1.3h.2c.1.1.2.1.3-.1 0-.1.1-.1.2-.2l.2.1h-.1v.1c0 .1 0 .1.1.2.1 0 .1-.1.2-.1 0 0 0-.1.1-.1l.2.1v.2l.7.3c.1-.2.1-.3.2-.4.2 0 .5.1.7-.1l-.5-.2.3-.3h.6l.3-.3-.1-.1c.1 0 .2-.1.3-.2s.3-.2.4-.3l.1.1c0-.1.1-.2.1-.2.3-.1.2-.2.1-.3l-.2.2c-.1-.1-.1-.2-.2-.2h-.1l.3-.1v-.1h.1l-.1-.1h0l.8-.3h.7l-.1-.1.4-.2-.3-.2c.1-.3.5-.3.7-.4v-.4l.2-.2c0-.1.1-.2.1-.3.2-.1.4 0 .5-.3l-.5-.2v-.5c.4-.2.9 0 1.2-.1l.1-.3.5-.1-.3-.2.5-.2c-.3-.2-.3-.4-.2-.7.2 0 .4 0 .5-.2s.2-.3.4-.5l.5.2.2-.4c.3 0 .5-.1.6-.4-.1 0-.1-.1-.2-.1l.5-.4-.3-.3c-.1-.5.4-.8.6-1.3.1-.2.5-.2.7-.4v-.4l.4-.3.3.2h.8c0-.4.4-.1.5-.3s0-.3-.2-.4c.3-.2.7-.2.7-.6l-.3-.3c.2-.1.3-.1.4 0s.1.2.1.3l.7-.3-.2-.2v-.8c.3-.2.3-.6.6-.7l.5.4.4-.3-.2-.2.6-1c.2 0 .3-.1.4-.1.1-.1.3-.1.4-.1v-.5c.3-.2.7.1 1-.2 0-.1.1-.2.1-.3l.4.2.2-.4h.3l.5-.6.8.3c.1-.2 0-.4.3-.4 0-.3.5 0 .5-.3l-.2-.2c.1-.3.5-.3.7-.4v-.2c.2-.1.2-.3.5-.3h.5c.1-.2.1-.3.2-.5l.5.3c.1-.1.1-.3.2-.3.3 0 .3.3.6.3.2-.2-.1-.6.2-.8l.4.2.4-.2.2.2.4-.2.3.2.4-.3.4-.4c.2-.1.2-.3.4-.3l.2.2c.4-.3.8-.6 1-1.1l.1.3.1.2c.4 0 .8-.2.9-.3v-.2c.1 0 .3-.1.4-.1.1-.1.3-.2.4-.1s.2.1.3.2l.2-.4c.5-.1 1 .1 1.5-.1l-.5-.2.4-.3.3.2.4-.2.6.3c.1-.1.3-.3.5-.4l.6-.3.2.2.7-.4c.3-.1.7.1.9-.2l-.7-.3h2.2l-.2-.3c.3-.3.4.1.6.1s.4.1.6-.1c.1-.2-.1-.3-.2-.4.2-.1.5-.2.7-.3s.6-.1.7-.3c.2-.2.6 0 .8-.2l-.2-.2 1.2-1c0-.1.1-.2.1-.3h.9c0 .1 0 .2.1.3s.3.2.2.4l-.2.3.4.4c0 .2-.1.5.3.6v1l.3.2v.4l-.2.2v.6c.2.3.3.5.4.7l-.2.4.3.3c-.1.1-.3.2-.2.4l.4.1c0 .2.3.4.2.6l-.4.1v1.7l.5.4v.4l-.2.2.2.2v.6l-.2.2v.6h-.1c0 .1-.1.3-.1.3l.2.2h-.2c0 .1-.1.2-.1.3l.1.1-.2.1h0c.1 0 0 .2.2.2 0 .1-.1.2-.1.2l-.2-.1c0 .2.1.3.1.5l-.2-.1-.3.2.3.1s0 .1-.1.1c.1-.1.3-.2.4 0l-.4.1c0 .1.1.2.1.3h.4c0 .1-.1.2-.1.4h.1v.4h-.5s-.1.1 0 .1c0 .1.1.2.1.3l.3-.1c0 .1-.1.1-.1.1v.1h0v.2h.1 0c0 .1.2.2.4.2h0c-.1.2.2.4.3.6h-.2c.1.1.1.2.2.3 0 .1.1.1.1.2-.1.2 0 .4 0 .5 0 .4-.1.7-.1 1.1-.1 1.2-.5 2.4-.8 3.6-.1.4-.4.8-1 .9l-.8.3c-.2.1-.3.3-.2.5v.1c.1.1.3.2.6 0s.6-.3.9-.5c.4-.2.4-.2.7 0 .1.1.2.1.3 0 .1 0 .2-.1.2-.3 0-.4-.1-.7-.1-1.1 0-.3-.1-.6.1-1 .1-.1.1-.2.1-.3 0-.3.1-.7.3-.9.1-.1.1-.2 0-.3s-.1-.2-.1-.3c.1-.3.1-.6.2-1l.1-.1v.3c0 .1.1.1.1.1.1 0 .1 0 .2-.1l.2-.2c.1-.2.1-.3.2-.5 0 .3.3.6.5.9h.8c.1.7 0 1.5 0 2.2 0 .3-.1.7-.2 1 0 .3.1.5.6.4.3 0 .4-.2.4-.4l-.3-.9-.3-.8c-.1-.4 0-.9.2-1.3 0-.1.1-.2.1-.3h.1c.1 0 .1 0 .2.1v.5c.1 0 .1 0 .2.1h.1c.1-.1.2-.1.4-.2 0 .1-.1.2-.1.3 0 .2.1.3.3.3s.3-.1.4-.2v-.6-.1l.3.2c.1-.1.2-.2.3-.2.3 0 .6.1.8-.1 0-.2 0-.3.1-.5l.7-.1c.1-.2.5-.3.6-.6l-.3-.3.1-.2c0 .2.1 0 .2 0l-.1-.1c.3.1.3.1.4 0 0 0-.1 0-.1-.1v-.1l.2-.3a.55.55 0 0 0 .3-.5h.1 0l.2.3c.1-.2.2-.3.2-.5.1-.1.1-.3.2-.4 0-.1 0-.3.2-.3 0-.3.1-.4.4-.5l-.5-.1h.2 0l-.4-.1.2-.2.3.2h0c-.1-.2-.1-.3-.2-.5h-.1c-.1 0-.1-.1-.2-.1v-.2c-.1 0-.2-.1-.2-.1s0-.1.1-.1c.2-.1.2-.3 0-.4l.3-.3h-.2 0l.2-.1v.2l.4-.1v-.1c-.2.1-.3.1-.3-.1l-.1-.1c-.1 0-.2 0-.3-.1 0-.1.1-.2.1-.4l-.2.1.1.1-.2.1c.1-.1.1-.3.1-.4s.1-.2.1-.3h-.2c.1-.1 0-.2 0-.3h-.1v-.1.1c-.2 0-.3-.1-.4-.2-.1-.2-.2-.3-.3-.5l.2-.2-.3-.1-.1.1c0-.1.1-.2.1-.2h-.1l-.1.1h-.3v.1l.2.1-.1.1c-.2-.1-.2-.3 0-.4.2-.2.1-.4.1-.6-.2-.2-.4-.3-.5-.5l.3-.4-.5-.8v-.8l-.4-.1c0-.1-.1-.2-.2-.3s-.2-.2-.2-.4l.2-.2c0-.2.1-.5-.1-.7l-.5-.1c.3-.2.7-.2.8-.5v-.2l-.4-.1c-.1-.2 0-.5-.3-.7v-.9l.3-.2-.5-.2c-.1-.2.2-.3.2-.4v-.6c-.2-.3-.4-.5-.5-.8s-.5-.4-.5-.7c.5-.7.5-.7.5-1.1l-.3-.4.3-.3-.5-.1.3-.2V214l.2-.2c-.1-.1-.1-.2-.2-.2l.2-.2-.5-.8.3-.3v-.6l-.5-.2.3-.3v-1.1l.5-.1v-.4c-.1-.1-.2-.1-.2-.2l.3-.2v-.8l.2-.2-.2-.2.3-.2v-.8c.3-.2.4-.5.7-.2v.2l.7.3h.6l.3.2h.7l1.2.9.1.3h.5l.3.2c.2 0 .4-.1.6.1l.1.4h1c.3.2.5.5.8.7s.8.3.9.6c.2-.3.5-.2.8-.2.2.4.2.4 1.1.8h.5l1 .8c.3.3.5-.2.6 0l.5.1-.3.3c.2.1.4.1.5 0v-.1c.1-.2.1-.2.3-.1v.4l.4.3h.5l.3.2.3-.2.6.5c0 .1.1.2.1.4l.3-.5.5.4h.5c.3.1.3.4.6.6h.5l.5.4.2-.2 1.2.5c-.1.1-.2.1-.2.2l.5.4.8.4.4-.5.4.1v.2c.2.2.6.1.7.4l-.2.2c.2.4.8.4 1.3.6l.8.7h.5l.2.4.6.2.4-.2 1 .8v.2l.7.4c.1.3.3.7.7.9l.3-.2.3.3c0 .1.1.2.1.3.3.1.7-.1.9.2-.2.1-.3.2-.2.4l1.5.6v.4c.1.1.2.3.4.3l.2-.4.3.5c.9 0 .9 0 1.1.2l-.7.1c.2.3.5.1.7.2l.6.3v.5l.3.6.9.8v.1l.5.8-.5.2c.5.2 1 .3 1.3.6l-.2.2c.1 0 .1.1.2.1s.1 0 .2.1l.4.8h.5c.2.2.4.3.6.5l-.2.2.7.3.3-.2c.2.4 0 .8.2 1.2h.5l.7.5v.5l.6.3-.3.5.5.1v.2l-.3.2.5.2-.2.6.2.2v1.3l-.2.2c0 .2-.1.5 0 .7l.2.2v.4l.2.2-.2.2.2.2v.8l-.3.4.6.4-.5.8c.3.3.4.7.8.9-.1.2-.5.3-.5.6l.2.3c-.2.1-.2.3-.2.4 0 .2-.2.4-.2.5 0 .2-.1.4-.3.4l.3.2v.4l-.3.2v.4l-.3.2c0 .1 0 .3.1.4s.2.2.2.3c0 .2.1.3.2.4s0 .3.2.3l.4.1c-.3.1-.6.2-.8.5v.6l-.2.2.3.4-.3.3v1.2s0 .1.1.1l.2.1c-.3.2-.2.5-.5.7v.2l.3.2v.8l.2.2v.4c0 .1-.3.2-.2.4l.2.2c.1.2-.1.3.1.5l.4.1c.2.3-.1.3-.2.5a.78.78 0 0 1 .4.4c.1.2.2.3.2.5l-.2.2v.5l.7.4.1.3h.3c.2.3.7.4 1 .6l.8-.3.2.4.3-.2h.9l.3-.4.2.2.5-.2c0-.2-.1-.4.1-.5l.3.2.3-.1c0-.1.1-.2.1-.2l.7-.4v-.6l1-.8-.2-.2c.1-.1.2-.1.2-.2l-.3-.3.3-.5-.2-.3v-1l.5-.4-.5-.2v-1l-.3-.3.3-.4-.7-.6v-.6l.2-.2v-2.1c-.4-.1-.2-.5-.4-.7s-.2-.5-.4-.9v-.8s0-.1.1-.1l.2-.2-.2-.2v-.6l-.6-.3c.5-.2.1-.7.5-.8 0-.2 0-.5.1-.7l.2-.2-.2-.2v-.8l.2-.2-.5-.4v-1.6l-.2-.3.2-.2V233l-.3-.3c.1-.2.3-.3.3-.5 0-.3.3-.4.3-.6l-.3-.4.3-.3c0-.1.1-.3 0-.4l-.2-.2.3-.2v-.4l.2-.2-.5-.2.5-.4c0-.2.1-.3 0-.5l-.2-.1.3-.3-.3-.3.2-.2-.2-.2v-1.1l.2-.2c.1-.3-.4-.3-.2-.6-.3-.2-.3-.4-.2-.6 0 0 .1 0 .1-.1l.2-.2c0-.6 0-.6-.1-.7-.1 0-.3.1-.4-.1l.2-.2-.2-.2v-.4l-.3-.2.2-.2-.3-.3c.1-.1.2-.3.3-.3l-.5-.4v-1l-.3-.2v-.6l-.2-.2c-.1-.2.2-.3.2-.4v-1.5l-.2-.2v-1.3l.2-.2v-.9c0-.1 0-.1-.1-.2l-.2-.2v-.4l.2-.2-.2-.2v-1.2c.2-.3.2-.3.2-.6l-.2-.2v-1.9l.3-.3-.3-.3v-.4l-.2-.2.2-.2v-1.7l-.2-.2.2-.2c0-.1-.3-.1-.1-.3.1 0 .2 0 .3-.1 0 0 .1 0 .1-.1v-1.5l-.2-.2v-.5l.4-.6.3.2.3-.2c.2.1.4-.1.6.1 0 .1.1.2.1.3l.7.1-.3.3.7.1.2.2h.5l.3.2h1.5s.1 0 .1.1.1.2.1.3h.6l.4.3c0 .1-.1.3.2.3l.2-.2.5.4h.5l.4.2.5-.3.4.2.3-.2c.3 0 .4.3.7.2.1.1.3.3.5.4s.5.2.7.3h.6l.3.3c.1.2 0 .4.2.6h.8c0 .2.1.4.1.6l.4.1.3.3v.4c-.1.1-.3.2-.2.4l.3.2v.6l.2.2-.2.2v1.1l.3.3v.9a1.38 1.38 0 0 0 .3.4l-.3.4.3.3-.3.3a.76.76 0 0 1 .2.4l-.5.2.6.2v1.1l.2.2-.2.2.2.2-.4.7.2.2v2.1l.2.2-.2.2.2.2-.2.2v.5l.2.2v2.1l-.2.2v1.8c0 .1 0 .1.1.2l.2.1v1.2l.2.2-.2.2v1.5l.2.2v.7l.3.4c-.1.2-.4.3-.3.5l.2.2-.2.2c-.1.2.2.3.3.5v.5l.2.2-.2.2v.4l.2.2h-.2c-.1 0-.2-.1-.3-.1h-.2l.1.2h-.6 0l.6.1v.3c0-.1.1-.1.2-.2.1 0 .2-.1.2-.1 0 .1.1.1.1.1v.2c-.1 0-.1-.1-.1-.1l-.1.1.1.1s.1 0 .1-.1h0l.3.2v.1h-.1v.1l.1.1h0l-.2.2-.5.2c.2-.1 0-.2-.1-.3v.1h-.2c.1.1.2.2.2.3s-.2.1-.3.2v.1h0l-.1-.1h-.1v-.1c0-.1.1-.1.1-.2h-.1l-.2.1c0-.1-.1-.2-.1-.2 0-.1-.1-.1-.2-.1.1.1.1.3.2.4s.1.2 0 .3l-.2.2.1.1.2-.1c.1.1.2.2.2.3l-.4.1v.1h.3c-.1.4-.4.4-.8.3l.1.2c.1-.1.3 0 .4.1l.2-.1v.1c-.1 0-.2.1-.3.1s-.2.1-.2.1v-.1l-.2.2c.3.2.4 0 .5-.1v.5c.1 0 .1-.1.1-.1 0-.1 0-.3.1-.4 0 0 .1 0 .1-.1h-.1c0 .1.1.1.1.2 0 .2.1.2.3.1-.2-.1-.2-.1-.1-.2h.4c.1 0 .2 0 .3.1s.3.1.4 0 .1-.1.3 0h.1v-.1s-.1 0-.1-.1v-.1l.1.1v.5c-.1 0-.1 0-.1.2 0 0 0 .1-.1.1h.1v.1l.1.1h0-.1c-.1 0-.1.1-.1.1l.1.1c.1 0 .2-.1.2-.2l.5.3v.4c0 .1.1.1.1.2h.3l1 .8h.3l.5.4h.3c0 .1 0 .1.1.2 0 .1.1.2.1.3v.2c.1.1.1.4 0 .4-.1.1-.1.2 0 .3l.2-.1.6 2.6c0 .1.1.3-.1.4v.2c0 .1.1.1.1.2v.6c0 .1-.1.1-.1.2-.1.1-.1.1 0 .2.2.1.2.6 0 .7h-.1l-.1.1h.3c-.1 0-.1.1-.2.2 0 0 0 .1.1.1.2 0 .2.1.2.3 0 .4-.1.8-.1 1.1 0 .9-.1 1.8-.2 2.7 0 .3-.1.7-.2 1l-.6 1.5c-.1.2-.1.5 0 .6.2.3.5.4.9.2.2-.1.4-.4.5-.6.2-.6.3-1.1.3-1.7v-4.3l.1-2.3v-.4c0-.7 0-1.3.1-2 0-.1.1-.1.1-.2.1-.1.1-.2 0-.2-.2 0-.2-.2-.2-.3 0-.6 0-1.2-.1-1.8h0 .2c-.1 0-.1.1 0 .2.1 0 .2-.1.2-.2h.1c.1-.1.2-.3.3-.4h.1s.1 0 .1-.1h.6l.4-.3v-.3c.1-.1.2-.1.3-.2.1 0 .1-.1.2-.1h-.1-.3l.2-.2h.1.2l-.1-.1.3-.1.2-.3h0 .1s0-.1-.1-.1l.1-.2h.1 0l.3.2c-.1 0 0 .1 0 .2.1-.1.3 0 .3-.2h-.3c0-.1 0-.2.1-.4h0s.1 0 0-.1l-.1-.1h-.3-.1c-.1-.1-.1-.2 0-.2l.3-.1-.1-.1-.2-.2h0s.1 0 .1.1c0 0 .1 0 .1-.1s0-.1-.1-.1h0v-.3c.1.1.2.1.3.1h.1c0-.1-.1-.2-.2-.3 0 0-.1-.1-.2 0v-.7c-.1-.1-.1-.2-.2-.3.1-.1.2-.2.2-.3 0-.2-.1-.3-.3-.3h0v-.3c.1-.1.1-.2.2-.3 0-.1 0-.2-.1-.2h-.1c-.1 0-.2.1-.3.1h-.1l-.1-.1h0l.4-.1-.1-.1h.4c.1 0 .2-.1.3-.2s.1-.2.1-.2h-.2c-.1 0-.2.1-.4.1h-.6s0-.1.1-.1l.2-.2h-.1l-.1-.1.1-.3c0 .1-.1.2-.2.2-.2-.2-.3-.6-.6-.8 0 0 0-.1-.1-.1h-.1c0-.1-.1-.2-.2-.3s0-.3-.1-.4l-.2-.2v-1l-.3-.2V228l.2-.2c-.1 0-.2-.1-.2-.1-.1 0-.1 0-.3-.1v-1.1l-.3-.1-.3-.1v-1.5l-.2-.2v-.4l.2-.2v-.5l-.5-.3v-1.1l.2-.2v-.6l-.2-.2.2-.2-.2-.2v-.4l-.2-.2.2-.2v-1l-.2-.2c.2-.3.2-.3.1-.7l-.2-.2v-.4c-.1-.1-.4-.2-.3-.4l.2-.2v-.8l-.2-.2v-.5c0-.2-.3-.2-.3-.4v-.5l-.3-.2v-.9c0-.1 0-.1.1-.2.1 0 .1-.1.2-.1l-.2-.2v-.2l.5-.2-.2-.2.3-.4-.3-.3c.3-.1.6-.2.7-.4l-.5-.2.4-.3.3.2 1-.8a.76.76 0 0 1 .2.4l.3-.2c.2.2.2.6.7.6.3 0 .6.3.9.4h.4l.3.2h.5c.3.1.4.4.5.6h.6c.3 0 .3.2.5.2.4-.1.6.3 1 .2.1 0 .2.1.3.1l-.3.5c.5.1.9 0 1.4 0l.7.6.9.3.1.4h.7l.6.6h.3c.4.1.7.4 1.2.4.1 0 .1.1.1.1.1.3.4.5.7.7.5-.1.8.3 1.3.3.1 0 .1.1.2.2h.9c.2.1.3.2.4.2s.2.1.3.1l-.2.3c.2.1.3.1.5.2s.3.1.6.2l1.1.9c.2-.1.3.2.6.2h.4c.3.2.4.4.8.4.1.1.1.3.2.4h.3c.2.1.4.3.6.4.1 0 .2.1.3.1l.1.3.7.1c0 .1 0 .2.1.3l.3.3.5-.2c.2.3.3.5.6.7.5-.1.8.3 1.3.2.2.1.3.3.5.4.3 0 .4.2.6.3s.3.2.5.2l.1.3.1-.1c.1.2.3.4.4.6h.5c.3.1.4.4.6.6h.7l.9.7v.2l.5.2c.1.1.1.2.1.3h1.1c.2.3-.1.4-.1.5l.4.3h.7l.4.3v.4l.6.5c.1 0 .4-.1.3.2l-.2.2.5.2v.2c.3.2.4.4.8.6l.4-.3c.1.1.1.3.2.4.6.2 1.3.4 1.5 1 .1.2.4.3.7.4a.9.9 0 0 0 .1.5l.4.1c.1.2-.1.4.1.5l.7.1-.3.3.7.6v.6l.3.2c0 .3 0 .3.2.5l.2-.1c.2.1.4.2.4.4-.1.1-.2.2-.2.3l.5.1c-.1.1-.2.3-.3.4l.3.3v.5l.6.3-.3.5.2.2c0 .2.1.5 0 .7l-.2.2.5.2v.6h0s0 .1-.1.1c0 .1 0 .3.2.4l-.1.1c-.1-.1-.2-.1-.2-.2h-.1c0 .1.1.2.2.3 0 .1.1.1.1.2-.1 0-.3 0-.4-.1h-.1 0c.1.1.2.2.3.2.2-.1.3 0 .4.1l.1.1-.1.1-.4-.3c0 .2-.1.2-.1.3l.3-.1c-.1.1-.1.2-.1.2-.4 0-.2.2-.1.3l-.2-.1c0 .3.3.1.4.3l-.7.1.1.2c.1.1.2.1.3.2l.1.1c.3-.1.3.1.5.3 0 .2-.3.4-.1.6h.2c-.1.3-.4.1-.6.1l.3.3c.2.1 0 .2-.1.3-.1-.1-.3-.2-.4-.3h-.2c-.3.4.3.3.4.5 0 0 .1.1.1 0 .1 0 .2-.1.4-.1l.3-.4c0 .2.1.4.1.6.1 0 .3 0 .4.1.2.1.1.2-.1.4a3.04 3.04 0 0 1 .5.7h.5c0 .2.1.3.3.3.1 0 .2 0 .4.1.3.2.6.4.9.5s.5.2.7.4.4.5.4.8c.1.5.1.9.1 1.4l-.2 4.2-.1 3.3c0 .3.1.6.3.8.2.3.5.4.9.3.3-.1.6-.2.6-.5s.1-.5 0-.8c-.1-.8-.3-1.7-.3-2.5v-5.1c0-.3 0-.6.1-.8.2-.1.5-.2.7-.3 0 0 .1.1.2.1.1.1-.1.3.2.3 0-.1.1-.2.1-.3.1-.1.2-.2.4-.3h.6s0 .1.1.1c.2.1.4.1.7.2l-.2.2v.1l.1.1.1-.1s.1-.1.2-.1h0 0 0l.3-.2c.2.1.3.3.2.5v.1c.2.4.1.8 0 1.2-.1.6-.2 1.2-.2 1.8 0 .3.2.7.4.9s.5.3.7.2c.2 0 .4-.2.5-.5v-.5c-.1-.5-.2-1.1-.1-1.6l.3-1.5c.1-.3.2-.6.5-.8h.3v-.3h.1c.3-.1.6-.2.7-.4 0 0 .1 0 .1-.1l.4-.2v-.1l.1.1c0-.1 0-.2.1-.3s.2-.1.3-.2l-.4-.1h.3c.1-.1.1-.2.1-.2s.1-.1 0-.1c-.2-.1 0-.2.1-.2a1.38 1.38 0 0 0 .3-.4l.2.1c0-.1 0-.1-.1-.2 0-.1 0-.1-.1-.2l.2.1h0l-.4-.3v.2h-.1c.1-.3.1-.6.2-.9l.2.1c.1-.4-.3-.4-.5-.4l.2-.2-.2-.1c.1-.2.1-.5 0-.6-.2-.1-.3-.1-.5-.2l.2-.2c-.2 0-.3 0-.5-.1s-.4-.3-.4-.4c-.1-.2-.2 0-.2-.1-.1-.1-.1-.2-.2-.2v-.8l.3-.3-.3-.3v-.8l.2-.2-.2-.2.2-.2v-.6l-.5-.7c0-.2.1-.4 0-.5-.2-.2-.2-.5-.3-.7 0-.1-.1-.1-.2-.2v-2.6-.1s0-.1-.1-.1l-.6-.3v-.2l.5-.1c-.1-.2-.3-.5-.4-.7l.5-.2-.3-.6.3-.3v-1s.1 0 .1-.1l.3.2c.3-.2.1-.3-.1-.5l.2-.2v-.4l-.2-.2.6-.2c-.1-.1-.2-.3-.3-.4-.1-.2.1-.3-.1-.5l-.4-.1v-.7c.4-.1.8-.2.7-.6l-.2-.2.3-.3-.3-.3.4-.4v-.7l-.5-.4c-.1-.2.2-.3.3-.5V220c.5-.2.5-.2.9-.9l-.2-.2.7-.1.3-.3-.2-.2c.2-.1.3-.1.5-.2s.3-.1.6-.2c-.2-.2-.4-.3-.6-.5-.1-.1-.3 0-.4-.1l.4-.3h.3c.2-.1.2-.3 0-.4l-.3.2c0-.1 0-.2-.1-.3v-.3l.7.3c0 .2-.1.4.1.5l.8-.4.3.2.8-.7.3.3h.7l.3-.2.3.2h.5l.2-.2c.2.1.4.3.6.5s.5.1.6.3.5.2.7.4v.2c.2.1.2.3.6.3l.4-.2h.6l.4.4.2-.2c.2 0 .5-.1.7.1v.2s.1 0 .1.1h1.6a.76.76 0 0 0 .4.2c.1.1.2.1.3.2h.5l.5.6h.6l.3.4h.8l.5.6c.3 0 .6-.1.9.1 0 .1.1.2.1.3.3.1.5 0 .7.1 0 .1.1.2.1.3l.6.2.2-.2.7.7.1-.1.5.2.1-.3.9.8v.3c2.1.7 2.1.7 2.5 1l-.2.1c0 .2.3.1.4.1.2.1.3.3.5.4l.2-.2a.76.76 0 0 1 .2.4l.4.1c0 .2 0 .4.1.5.3.1.7.1.7.4.1.4.5.5.7.7.2 0 .4-.1.5 0 .4.2.9.3 1.3.6.2-.2.3-.3.6-.1l-.2.2c.4.4.5-.3 1.1 0l.3.3h1c.3.1.3.4.5.6h.5c.2.4.8.4 1.1.7v.4c.2.2.4.4.7.5h.5c.1.2.1.3.1.3l.9.3.3.5-.5.1.6.2c-.1.2-.2.4-.3.5l.1.2.8-.4.4.4.4.1v.9h0c.2.1.4 0 .4.2l-.2.2c.3.3.6.5 1 .6l-.2.2v.4c.2.3.5.3.7.4l-.5.5c0 .3.2.3.2.4 0 .2.2.3.3.4v1.2l.2.2v.4l-.3.3v1.4l-.2.2c0 .2-.1.3 0 .5l.2.1-.3.3c.1.2.2.3.3.5l-.3.4v.6l-.2.2.2.2-.2.2.2.2v.6l-.3.3.3.4-.4.1c-.1.2.1.3.2.5l-.5.4.3.3c-.1.1-.1.2-.3.4v.8l.2.2v.8l.2.2v.4c-.1.1-.5.3-.2.5l.4.1v.4c.1.1.2.3.3.4l-.3.3c.2.3.3.7.7.8v.6l.3.3c-.1.1-.2.3-.3.4.2.1.2.3.2.4.1.2.2.4.3.5l-.3.3.2.2-.2.2.5.2v.6l.5.4.1.3.5.1v.2l.4.3c.2 0 .3-.4.6-.1l.1.4h.5l.3.2h.5l.4-.2.5.3c.4-.2 1-.2 1.1-.8 0 0 .1 0 .2-.1.2-.1.5-.2.7-.3H444c.3 0 .5-.1.7-.1l.1-.1-.5-.2.3-.3h.3c0-.1.1-.2.2-.4.1-.1.2-.2.2-.4l-.5-.4c.1-.2.4-.2.4-.4l-.2-.2c.1-.1.3-.2.2-.4l-.2-.2.3-.3-.6-.5v-1.4c-.2-.2-.3-.4-.5-.6l.1-.1.4-.1-.3-.5c-.1 0-.3.1-.4-.1l.3-.2-.6-.3.3-.3c.1-.3-.4-.4-.3-.6-.3-.2-.2-.4-.2-.6l.2-.2-.2-.4.3-.3-.2-.3c0-.3.4-.4.2-.6l-.4-.1v-.5l.2-.2v-1.5l.2-.2-.2-.2c.2-.2.6.1.7-.2v-.4l-.2-.2.3-.5h.6l.3-.4h.8l.5.2.3-.2h1.1c.2.6.4 1.1.5 1.7 0 .1.1.2-.1.3v.1l.1.1v.4l-.1.1c-.1.1-.1.1 0 .1.2.1.2.4 0 .5h-.1s-.1 0-.1.1h.3c-.1 0-.1.1-.2.1 0 0 0 .1.1.1.2 0 .2.1.2.2 0 .3-.1.5-.1.8 0 .6-.1 1.3-.2 1.9 0 .2-.1.5-.2.7l-.6 1.1c-.1.1-.1.3 0 .5.2.2.5.3.9.1.2-.1.4-.2.5-.4.2-.4.3-.8.3-1.2v-3c0-.6 0-1.1.1-1.7v-.3c0-.5 0-1 .1-1.4l.1-.1c.1 0 .1-.1 0-.1-.2 0-.2-.1-.2-.2v-.7h.3v-.1c.1 0 .2-.1.2-.1l-.1-.1c0-.1.1-.2.2-.2.5-.2.8-.5 1.2-.8h0 .1c.1 0 .2-.1.3-.1s.1-.1.2-.1h-.1-.5 0v-.1l.2-.1c.1 0 .2.1.3.1h.2l-.2-.1h.1c0-.1.1-.1.1-.2l-.1-.1v-.2h.1.1.3c.2 0 .5.2.7 0h0s.1 0 .1-.1c0 0-.1 0-.1-.1h-.3-.3v-.3l.1-.1c0-.1 0-.1-.2-.1h-.3 0 .6c.1 0 .1 0 .2.1h.1s0-.1-.1-.1l-.1-.1c0-.1-.1-.1-.2-.1l-.1-.1h.1c0-.1.1-.1.1-.2 0 0-.1 0-.1-.1l-.1.1h0-.3c.1-.2-.1-.2-.3-.3h0v-.1c.2.1.6.3.6.2l-.2-.2.2-.1-.3-.3c.4.2.8.1.8-.2 0-.1-.1-.2-.3-.2-.1 0-.2 0-.3.1l-.1-.2c.4 0 .5-.2.7-.3.1-.1 0-.2-.1-.2-.2 0-.4.2-.4.3v.1h-.1v-.1-.2l.4-.1-.1-.1h.4c.1 0 .2-.1.3-.1s.1-.1.1-.2h-.2c-.1 0-.2.1-.4.1h-.9c.1 0 .2-.1.3-.1.2 0 .2-.1.1-.2l.1-.2c-.1.1-.2.2-.4.2-.1 0-.2 0-.1.1-.1 0-.1-.1-.1-.1 0-.1-.1-.2-.4-.2-.2 0-.4 0-.4-.1.1-.1.2-.1.3-.2h.2.2s0-.1-.1-.1a.45.45 0 0 0-.5 0s-.1 0-.1.1l.1.1s.1 0 .1.1c-.1 0-.1 0-.2.1-.2 0-.2.1-.2.2l.1.1h-.1l-.3-.3v-.1h-.1 0 .2-.3c-.1 0-.1-.1-.2-.1-.4-.1-.6-.4-.9-.5h-.4c-.4-.2-.8-.4-1.2-.5-.3-.4-.9-.4-1.3-.7v-.2c-.2-.3-.6-.3-.9-.5-.2-.2-.4-.5-.8-.4-.3-.3-.6-.4-.9-.5l.3-.4-.2-.1c-.2-.5.3-.9.3-1.3l.5-.1v-.2c-.1-.1-.2-.1-.2-.2v-.8c.1-.1.2-.2.3-.2-.1-.2.1-.3-.1-.5l-.5.2-.4-.6.2-.2v-.5l.6-1c.2 0 .3 0 .4-.2a1.38 1.38 0 0 1-.3-.4c-.1-.1-.1-.3-.2-.4.2-.1.2-.2.2-.3.1-.1.3-.2.2-.4l-.3-.4.3-.4c-.1-.1-.2-.3-.3-.4 0-.2 0-.4-.3-.5.3-.2.2-.5.5-.6l-.6-1.5.2-.2v-.8l-.3-.4.3-.3-.2-.2v-.4l.2-.2v-.4l-.2-.2.5-.1c0-.1.1-.2.1-.3.3.1.7.3 1 .4.2 0 .4.1.5.2l.6.3.6.6c.5 0 .6.4 1 .2l.9.4c.3 0 .5-.1.8.1-.1.1-.1.2-.2.3.3.2.4-.1.6-.1l.2.4c.7.1 1.1.3 1.8.8l.2-.2.4.2.3-.2c.2.1.2.4.4.5a.76.76 0 0 1 .4.2 1.38 1.38 0 0 1 .4.3h.5l.5.4h.5c.2.2.5.4.6.6.2.3.4.5.7.6h.5c.1.1.1.3.2.4h.6c.2.1.3.3.6.5.2.2.4.3.7.4s.4.3.6.5c.2.1.5.1.7.4v.7l.1-.1c.1.1.1.2.2.3l.3-.2.2.4h.5c.3.1.4.4.5.6l.3-.2.3.1c0 .1.1.2.1.3l.5.1v.2c.6.2.6.2.9.7.3 0 .6-.1.9.1l-.7.3c.4 0 .7.1.8.3.2.2.6.2.8.4s.2.4.4.6c.4-.2.4-.2.6-.1v.4c.1.2.3.4.4.6h.8l.3.3c.1.2 0 .4.2.6l.3-.2.2.4.4.1v.3c.1 0 .3 0 .4.1.1.2.4.1.5.2l.8.7v.2c.2.3.7.4 1 .5h.6l.3.2h.3l.6.5v.2l.5.2c0 .1.1.2.1.3h.5l.7.6h.5l.7.5c-.1.3.2.3.4.5.1.1.4.3.4.4 0 .3.4.2.5.3s.2.1.3.2a.76.76 0 0 0 .2.4c.1.1.2.1.3.2s.1.2.2.3c.2.1.4-.1.7.1v.8l.5.4v.5l.6.1.3.2.2-.2.3.2c.2 0 .4-.1.6.1.1.1.1.2.1.3l.4.1.1.5h.6l.4.3c-.2.2-.2.2-.2.4l1 .8v.2c.2.3.5.3.8.5v.1c-.1.1-.1.2-.2.3.2.3.8.3 1 .6.1.1-.1.3.2.3l.3-.2.2.4.5-.2.4.4c-.1.2.1.4-.1.7l-.2.1.3.5.3-.2c.2.1.5-.2.6.1l-.3.2.4.3h.5l1.4 1.2h0l.7.4v.7c.2.2.4.3.5.4l-.2.1c.3.4.4 0 .6 0l1.9 1.6v.4l.4.3h.5c.4.1.4.5.6.7.3.2.6.4.8.8.1.3.5.5.7.7v.4c.2.2.4.3.6.5l.2-.2 1.2 1v.6c.2.1.2.3.6.3l.4-.3c-.2.6.4.6.8.8v.2c.2.2.5.4.7.6l.2.4h.8l.3.2c.3-.2.3-.2.6-.1l-.2.2c.2.2.4.1.5.1.3.1.4.3.5.6.1.2.5.2.7.4v.2c.1 0 .3.1.4.1.2.1.3.2.5.4l.3-.2c.9.3.9.3 1.2.8h.8l.2-.4.4-.1v-1c-.1-.3-.4-.4-.5-.6.1-.4.5-.2.6-.3h0zM451.2 177zm-5.2-.4c0 .1.1.1.1.1-.1.1-.1.2-.2.3l-.2.1.3-.5zm-2.2.3h.1v.3c0-.1 0-.2-.1-.3h0zm-252.7-27.6l-.2.2.3.1h-.4c0 .1-.1.1-.1.1l-.2-.2c.1-.1.3-.3.6-.2zM69.6 189.1zm115-6.3v1l-.2.2v.7l.2.2-.2.2v.6l-.5.4.5.4v.5l-.7.5c-.3-.1-.7.3-1.1.2-.1-.2-.2-.3-.4-.5s-.3-.3-.5-.4l-.1-.3-.4-.1-.2-.4h-1l-.4-.3v-.4l-.4-.1-.4-.6v-.5l-.3-.3c.1 0 .2-.1.3-.1s.1-.1.2-.1l-.5-.2v-.2l-.5-.4.2-.2v-.7l.8-.1-.3-.3c.3-.2.5-.5 1-.6l-.2-.2.2-.2c-.5-.2-.5-.7-.8-.9l.3-.4v-.6c.3-.1.7-.2.8-.5l-.3-.3.5-.3c-.1-.4-.6-.7 0-1.1v-.9l.5-.1v-.4c.1 0 .1-.1.2-.1h1c0-.1.1-.2.1-.3l-.5-.4v-1l-.3-.5.8-.5h.7c.2.2.1.5.1.7l-.5.7v.5c.2.2.3.5.5.7l-.2.2c.4.2.8 0 1.2.1.2.1-.1.1-.2.3.1.1.2.1.2.2s0 .3.1.4.1.2.2.3c-.2.2-.2.4-.2.6l.2.2-.5.4c.3.2.3.4.2.7l-.4.1c-.2.1.1.2.1.3v.6c.1.1.2.2.3.2 0 .2-.1.3.1.5.2 0 .3-.3.6-.1.1.2.1.5-.2.7v.6l-.3.3c0 .1-.1.2 0 .3.2.4.5.8.7 1.2l-.1-.1zm81.1 8l.4-.2c.3.1.6.3 1 .3l.2.4.3-.5c.1.3 0 .5.2.6a.76.76 0 0 1 .2.4l.4.1.1.3-.3.2.5.4-.2.2.2.2v.8l-.2.2v1l.2.1c0 .1.1.1.1.2v1.1l-.2.2c-.1.2 0 .4-.1.6v.5l-.8.3c-.3 0-.3-.3-.8-.4-.1 0-.4-.2-.8-.3-.1 0-.2 0-.6.2l-.3-.2h-1l-.5-.4-.3.2-.3-.1v-.2l-.4-.3h-.6c0-.1-.1-.2-.1-.3-.4-.1-.9 0-1.4-.1l-.2-.2-.3.2c-.4 0-.5-.3-.8-.4h-.8l-.1-.3c-.3-.1-.7-.3-1.1-.3-.2-.2-.5-.2-.7-.4s-.5-.2-.7-.4v-.2c.6-.2.6-.3.9-.7h.8l.3.2h.5c.4-.2.3-.5.6-.7l-.3-.2.1-.3.8.7c.2-.1.3-.4.5-.4.3 0 .4-.2.6-.3h.4l.5-.4h.3l.2-.4.4-.1c0-.1.1-.2.1-.3.2-.2.4-.4.7-.5l.4.2.5-.4 1.5.1zm-8.5-5.5l.3.2.9-.4.5.2v-.5l.6-.3.3.2c.4-.1.6-.3.7-.6h1.1c.2-.4.8 0 .9-.4.2.1.3.3.6.2l.3-.2.5.2.3-.2c0 .1.1.2.1.5l.6.5-.1.1h-.3l-.6.5v.2c-.4.1-.6.3-.9.5h-.5l-.3.2h-.5l-.3.2h-.5l-.4-.2c-.3.1-.4.3-.8.4h-.6c-.3.3-.6.5-1 .8 0 0 0 .1-.1.2l-.8-.4c-.3.4-1 .4-1.2.8-.3 0-.6-.1-.8.2h-1c-.1.1-.2.1-.3.2-.2.3-.6.2-.8.4-.3-.1-.4.3-.8.2-.2.2-.5.2-.8.2l-.2-.2c-.1 0-.1 0-.2.1-.4.1-.7.4-1.2.3 0 0-.1-.1-.3-.2l-.2.4-.3.1-.3-.2c-.1.1-.1.3-.2.4-.3.1-.6.1-.8-.1l-1.4.6h-.9l-.2.2-.8-.4c-.1.1-.3.3-.5.1-.2-.4.2-.4.4-.7l-.2-.2c.1-.3.4 0 .6-.1l.5.4a.76.76 0 0 0 .2-.4c.4.1 0 .5.3.6l.3-.5c.1.2.1.3.2.4l.7-.3-.5-.2c.2-.2.4-.1.6-.1l.4.2c.1 0 .2 0 .3-.1.1 0 .1-.1.2-.1.1-.1.1-.3.2-.3.1-.1.3-.1.4-.2s.2-.1.3-.2v-.2l.9-.7h.3l.2-.4h.8l.8-.6c.3 0 .6-.1.8.2.2-.2.5-.2.6-.3.2-.1.4-.1.6-.1.3-.1.6-.3.9-.2.1-.2.3-.2.5-.2.2-.1.3-.2.5-.4h.7l.7-.3zm-21.5-16.2l.3.1-.1.1-.2-.2h-.1.1zm-.8.2h0c0 .1 0 .1 0 0h0 0zm-6.2-.6c-.2 0-.4 0-.5-.1l-.1-.1c.2.1.4.1.6.2h0zm-2.7 0h0 0zm-12.9 35.4l-.3.1c-.2.1 0 .3-.1.5-.2.2-.3.4-.7.3v1l-.8.1.3.2-.3.5c-.2.1-.5.1-.6.3h-.6l-.7.6h-.5c-.1.1-.2.3-.3.4h-.3l-.4.3v.6s0 .1-.1.1l-1 .3v.4l.2.2c-.4.1-.8.2-.8.7-.3.1-.6 0-.9.1 0 .1-.1.2-.1.2l-1.5 1.2h-.2c-.1.3-.3.5-.4.8-.4 0-.6.4-.9.5h-.1c-.2.2-.4.3-.6.5-.2.1-.3.3-.6.4s-.4.3-.6.4c0 .2-.1.4-.1.6l-.3-.2-.4.3v.2c-.4.1-.6.3-.9.5h-.5c-.4.2-.3.6-.9.8h-.5c0 .1 0 .2-.1.3l-.5.2.2.2v.1c-.5.4-.9.9-1.6 1.1l-.2-.2-.4.3v.4l-1 .8h-.1c-.2.1-.1.2-.2.3-.2.1-.5.1-.6.3-.2-.1-.2-.2.1-.5-.5-.2-.5-.2-1-.8V218l.2-.2-.2-.2v-1.9l.2-.2-.5-.4v-.4l.3-.3-.3-.4v-1.2c.2-.2.3-.4.2-.6l-.3-.2v-1.5l.2-.2-.2-.2c0-.2.3-.3.2-.5 0-.1.1-.3.3-.5-.1-.1-.1-.2-.3-.3v-.4l-.3-.2v-.3c-.1-.1-.2-.3-.3-.4s-.1-.2-.2-.3c.2-.2.2-.2.2-.6l-.2-.2v-.6l.2-.2-.2-.2V204l-.2-.2.2-.2v-.6l-.3-.3.3-.4v-1.2l.3-.2-.2-.2v-.6l.4-.1c.3-.2-.1-.3-.1-.5l.2-.1c0-.2-.4-.3-.1-.5h.8c0-.1.1-.2.1-.3.1-.1.3-.1.5 0l-.3.2.4.1.3-.2h1.5s.1 0 .1.1l-.2.2c.1.2.2.1.4.1.4-.2.4-.2.8-.1.1.2-.2.2-.2.3v.2l.7.3h.7l.3-.2c.1.1.1.3.2.4.3.1.6.1.8 0 .2-.3.8 0 1-.4h.9c.1 0 .2 0 .3.1l-.2.3c.2.2.4 0 .6.1l.3-.2c.1.2.3.3.6.2.3 0 .3.2.6.2l.4-.2h.5l.5.8c.3.1.4-.1.6-.2l.5.2.5-.4.3.2h.5l.3-.2.2.2.8-.3.2.2h.9l-.3.3.4.1-.1.1h.9c.1.1.1.2.2.4l.3-.2h.8l.3.2.3-.2.5.4h.8c.1.1.1.1-.1.2-.2.2 0 .5-.1.7l.3.3-.3.4.4.3.7-.3.3.4c.2.2-.1.2-.2.4.1-.3.3-.2.1 0h0zm5.7 38.5c0-.1 0-.2-.1-.3l.3.1-.2.2zm4.4-47.2l-.3.2h-1.3l-.3-.2c-.5.1-.8-.3-1.3-.2l-.3-.3.2-.2-.2-.2c0-.1-.1-.2-.1-.3-.3-.1-.5-.1-.7-.4l.2-.2-.2-.2v-.5c-.2-.3-.4-.7-.8-.9l.2-.2-.7-1.2v-.7l-.2-.2c0-.2-.1-.5-.1-.7-.4-.2 0-.6-.5-.8v-.8l-.5-.4.3-.2c0-.3-.4-.4-.6-.6a3.04 3.04 0 0 0-.7-.5v-.7l-.2-.2.2-.2v-1.1l-.2-.2v-.6l-.4-.2c-.2-.4-.3-.6-.5-.8l-.4-.1.3-.3-.5-.3v-.9l-.3-.2v-.4l-.4-.4c-.1-.2.1-.5-.3-.6l.2-.2v-1.2l-.2-.2v-.9l-.3-.2c.3-.1.2-.4.4-.6.1-.1.1-.4.2-.6l.3.3.1-.2c.3.1.5.3.3.5.6.1.3.3.3.5 0 .1 0 .2-.1.2l-.3.1.5.1-.3.1v.3c0 .2-.2.4-.1.5 0 .1.4.2.7.2s.6 0 .9-.2c.2-.1.3-.2.3-.4.1-.1.1-.3.1-.4-.5-.3-.4-.7-.4-1 0-.4.6-.6 1.5-.8l1.7.2v.2c.7 0 1.4-.1 2-.1s1.3.1 1.6.4l.4-.2c.1 0 .2.1.3.1h.5c-.1 0-.1-.1-.2-.1l-.1-.1 1.9.1c-.2.1-.3.1-.4.2.3 0 .5.1.8.1.1 0 .1-.1.3-.2l.9.2.9.2v.2l.4-.2c.5.1.7.3.5.4h.6c0 .1 0 .2-.1.3.4 0 .5.1.2.3.7.2-.2.1-.4.2l.2.2h.1l.2-.2c.1.2.3.3.2.4s-.5.1-.8.1l.9.1-.6.3c1 .2-.2.2-.1.4.3.1.7.1.1.3-.1 0 0 .1 0 .1.2.3.2.5-.3.7.1.1.3.1.4.2.2.1.3.3.8.3.6 0 .9-.1 1.2-.2l.2-.2v-.7-.6c0-.3.1-.3.9-.2.6 0 .8.1.8.3 0 .1.2.1.4.2.1 0 .4-.1.4-.1.1-.2.1-.3.1-.5 0-.1.1-.1.2-.1.6 0 .4-.1.3-.2-.8-.5-.2-.9.8-1.3l.9-.3h.1 3.7 0l.4.1c-.1 0-.1.1-.1.1.5.3.4.5.1.8-.2.2 0 .4 0 .6 0 .1.1.1.3.2.3.1.7.1.9 0s.2-.3.3-.4c0-.1.1-.2.1-.3-.5 0-.5 0-.3-.3-.3-.1-.2-.3-.1-.4l.4.3.1-.1.6.3.3-.2.8-.1c.2-.3.8 0 1-.4h.8c.2.2.6.2.8.4h1.5l.3-.2.2.2c.4-.2.8-.3 1-.6a1.96 1.96 0 0 0 .9.9l.5-.2c.3 0 .4.1.5.3.2.2.5.1.6.3.1.1.4.1.6.1l.4.2.4-.2c.5.1.9.5 1.4.4l.5.4h.3c.2.2.2.4.5.6h.6l.4.3-.4.1-.2.4h-.3c-.2.1-.1.3-.1.6l-.8.5h-.6c0 .1-.1.2-.1.3l-.7.3h-.4l-.3.2h-.7l-1 .8h-.8l-.4.4h-.6c-.1.1-.3.2-.5.2s-.3.2-.5.4h-.6l-.3.4h-.6l-.3.2h-.5c-.2.3-.6.4-1 .6l-.3-.2c-.1 0-.2 0-.2.1a.78.78 0 0 0-.4.4h-1c-.6.4-.6.4-1.3.6-.4.1-.7.3-1.1.4h-1.1c-.3.3-.8.2-.9.6l-.5-.3-.4.2h-.5l-.4.5-.3-.2c-.4 0-.5.3-.7.4h-.9c-.3.1-.5.4-.8.2l-.5.5c-.3-.1-.4.1-.6.2h-1.6l-1 .4-.3-.2-.8.4h-.4l-.3.2-.2-.4h-.1c-.1.1-.2.2-.4.3-.1.1-.3.1-.4.2 0 .1-.1.2-.1.3l-.4.1-.2.2-.3-.2h-.7l-.4.2-.5-.2-.3.4h-.6c-.1.4-.6.6-.9 1v.2l-.5.2c.2.1.4.2.2.4l-.6.3-.1-.3c-.1-.1-.3-.1-.4 0l.2.2-.3.3.3.4-.4.1s-.1.1 0 .1c.1.2.2.5.4.7h.5c.3.1.4.4.7.5l.1.3.3-.2c.2 0 .3 0 .4.1s.3.1.4.1c0 .2 0 .3.1.5l.4-.2c0 .1 0 .2.1.3l.7.1c.2.2 0 .4-.2.5.2.2.4.1.6.1l.3.6c-.2.1-.4 0-.6.1l-.2-.2c-.3 0-.3.2-.5.4h-.5l-.3.2-1-.6zm1.3 49.7c0-.1.1-.1.1-.2h.1.1l-.3.2zm2.9-.9l.3-.3h0c0 .2-.1.3-.3.3h0zm.6-.4s-.1 0-.1.1v.1h0c-.1-.1-.1-.2.1-.2h0 0zm41.3-35.2c0 .2-.2.1-.4.2l-.3.5.3.2c.1.1.1.1.1.2v.2 1.4l-.2.2.2.2-.2.2v.4l.3.3-.3.3.3.2c0 .2.1.4-.1.5l-.3-.2c-.3.2 0 .5-.2.8-.2.1-.4 0-.6 0l-.1-.3c-.5-.1-.7-.4-1.1-.7h-.5l-.3-.2h-1.5l-.3.2h-.6-.1c-.2.2-.5.4-.7.6-.2 0-.5 0-.6.1-.2.1-.4.1-.5.2s-.3.3-.5.3a.55.55 0 0 0-.5.3c-.2.1-.3.2-.5.4h-.5l-.5.4h-.7l-.5.4c-.4-.1-.8.3-1.3.2l-.4.5c-.5-.2-.8.2-1.1.2-.3.3-.7.5-1.1.6s-.7.4-1.2.4c-.2.2-.5.2-.9.2l-.5.4h-.4c-.1.1-.3.3-.5.4s-.4.1-.5.2h-1.4l-.5.4h-.6l-1.4.6h-.1l-.3.2c-.7 0-1.1.4-1.6.5v.3l-.5.1-.6.6h-.5c-.3.1-.4.3-.6.4s-.4.3-.5.4h-.3c-.2.1-.2.4-.4.6-.2.1-.3.3-.6.3-.2.3-.5.1-.8.2 0 .1-.1.2-.1.3l-.4.1c-.1.1-.1.2-.2.4-.1.1-.1.2-.2.4-.2.1-.5.1-.6.3-.3 0-.6-.1-.9.1l.2.2c-.2.1-.5.2-.7.3h-.1c-.1 0-.1.1-.2.1-.2.2-.4.3-.6.5-.4.3-.8.7-1.2 1h-.3c0 .1-.1.2-.1.3l-.9.7h-.5v.7c-.3.2-.6 0-.9.1l-.6 1c-.1.2-.2.4-.5.4-.5.1-.5.4-.7.6h-.3c-.2.2-.3.3-.5.4l-.6.3.3.6c-.2.2-.4.1-.6.1l-.3.2-.2-.4c-.4 0-.5.3-.8.4h-.2c-.1-.3-.4-.5-.6-.7 0-.4.3-.4.5-.6l-.5-.4v-.4l.3-.2v-.5c-.1-.1-.2-.3-.3-.4 0-.1.1-.3-.1-.4l-.3.2c-.1-.2 0-.5-.2-.6s-.1-.3-.3-.4a1.38 1.38 0 0 0-.4-.3c.1-.2.3-.4.4-.7l-.3-.5-.4-.1v-.4c.1-.2.4-.1.6-.1h.1c.1-.2.2-.4.4-.6l-.2-.3.2-.2-.3-.3.3-.3-.5-.8.3-.3v-.6c-.2-.2-.4 0-.7-.2-.1-.1.2-.1.2-.3v-.4l-.2-.2v-.6l-.3-.2.5-.1v-.8l.3-.3-.3-.6-.5-.1.3-.6-.3-.3c-.1-.2.2-.3.3-.5l-.3-.4v-.7l-.2-.2.2-.2v-.4l-.2-.2.3-.2-.5-.1c0-.2.1-.4.2-.6l-.3-.3.2-.2v-.6l.3-.2v-.4l-.2-.2.2-.2-.2-.2.2-.2c-.1-.1-.3-.2-.2-.4l.2-.2-.2-.2v-.2l.4-.1c.2-.4.7-.8.6-1.3l.3-.2v-.4c.1 0 .3-.1.4-.1.2-.1.4-.3.6-.5l-.2-.2.6-.9c.3 0 .6-.1.8.2.2 0 .1-.2.2-.3l.4-.1c0-.2-.2-.1-.4-.2 0-.1 0-.2-.1-.4h.7c0-.1.1-.2.2-.4h.6l.4-.5.1.1c0-.1.1-.2.1-.3l.4-.1c0-.2 0-.3.1-.5.2-.2.4 0 .7-.1 0-.2.1-.4.1-.6h.6l.4-.6c0-.1-.1-.2.1-.4l.4.2.8-.3c-.1-.2-.3-.3-.4-.4.3-.1.6-.2.7-.4l-.2-.2.2-.2-.3-.3.3-.3-.2-.2v-.5l.7-.1.1-.1-.4-.1c.1-.2.3-.4.1-.7l-.4-.1c0-.2-.1-.4-.1-.6l-.4-.1c-.2-.1 0-.3-.1-.5.1-.2.4-.2.2-.5-.3-.1-.7-.2-.8-.6 0-.1-.2-.1-.2-.1 0-.4-.4-.5-.8-.6v-.2l.3-.2-.3-.2v-.4l-.2-.2.1-.1h1c0-.1.1-.2.1-.4.4-.1.7-.4 1.1-.2 0 0 .1.1.2.1h.1c.3-.2-.1-.3-.1-.5.2-.2.4-.1.6-.1.2.1.3.4.6.1l-.2-.2c.3-.3.6 0 .9-.2.1.2.1.3.2.5l.3-.2.3.2.3-.2h1.4l-.7.3.2.2-.3.2.5.1-.3.6h-.5c0 .1-.1.2-.1.3a3.04 3.04 0 0 0 .5.7v.4l-.3.3.6.5c.1.2-.6.3-.2.6l.3-.2c.3.3 0 .4-.1.5l.7.3c0 .4.2.6.4 1 .4.1.9 0 1.3 0 .4.2.4.6.7.8l.3-.2.3.2h.5l.3.2.2-.2h1.5l.3.2h2.1l.2-.2c.2.1.3.3.5.2l.6.5.5-.2.2.1.2-.2.8.4.3-.2.3.1-.3.2c.3.2.7 0 1.2.1l.2.1h.5l.3-.2h.2c.2.3.6.1.7.4l.3-.2 1 .4.2-.2h.7c.1.1.2.1.3.2l.4-.2h0 .1c.2.2.4.4.6.5s.5.2.7.4l-.2.2.2.1 1-.4c.1.2.3.4.5.6h.3l.1-.4c.3-.2.4.1.6.1l.2-.2.8.6.2-.2c.3-.1.6 0 .8 0l.2.2h1.1l.5-.4.3.2h.5l.2-.2.7.3-.5.2c.2.2.4.1.7.1l.4.5.3-.5.2.4h.8l.5.4.3-.5c.5.3.2.6.3.9.2.1.2-.1.3-.1.2-.1.4-.1.6 0s0 .3.2.5l.2.2v1.4l.2.2-.2.2.2.2-.2.3c.1.3.5.5.8.8l-.2.2-.6-.2zm4.4-37.7l.7-.1c0-.1.1-.2.2-.4.1-.1.2-.2.3-.2h.5l.4-.3s0-.1-.1-.1c-.3-.2-.4-.5-.6-.8l.2-.2c-.2-.4-.6-.6-1.1-.7l.2-.2c-.1-.1-.4-.2-.1-.5l.1-.1c.1-.2-.2-.3-.2-.4l.3-.3.4-.1-.3-.3v-1l-.3-.2.2-.2c.1-.2-.2-.3-.2-.4v-.4l.5-.4-.3-.4.3-.3-.3-.5c0-.1.1-.2.1-.2.3 0 .4-.2.6-.3 0 0 0-.1.1-.2.2-.2.3-.5.5-.7s.5-.2.9-.4l.3.4c.2 0 .1-.2.2-.4.3-.1.7 0 1.1 0l.3-.2h1.4l.4.4.3-.2.4.2h.4l.3-.2c.4 0 .5.3.8.4l.7-.3.4.5h.6l.5.4h.8c.2.4.6.1.9.3.3.3.6 0 .9.1l.2.4.3-.2.5.4h.5l.7.6.3-.2c.4.2.4.2.8 0l.3.2h.7c.3.1.6.3.9.4h.4c.1.2.3.3.4.5s.4.2.6.3l.8.3c.3.1.5.3.8.4s.5.4.7.6h.6c.1.1.1.2.2.4.3.1.7-.1.8.2l.2-.2c.2.2.3.4.5.6h.6c.1.3.5.2.7.4.2.1.1.4.3.4.2.1.4.1.5.2.3.2.4.6.6.8.1.1.2.3.3.4v.5c-.3.2-.4.6-.7.8-.2.2-.3.5-.4.8h-.3c0 .1 0 .2-.1.3-.2.2-.4.4-.6.5-.5-.1-.8.3-1.3.2-.3.1-.4.3-.7.4l-.8.3c-.2.1-.6.1-.8.1l-.2.4-.3-.4c-.2.1-.3.4-.5.4a.55.55 0 0 0-.5.3c-.2.2-.4.2-.6.3v.2c-.2.2-.6 0-.8.2-.1.1-.4.2-.7.3H291c-.1.2-.5.2-.7.4-.4 0-.7.2-.9.5s-.5.5-.7.8c-.3.2-.5.4-.7.6-.4 0-.5-.3-.7-.4l-.6.3-.1.5-.6.1-.5.4-.3-.2-.3.2h-.5l-.3.2h-.5c-.1.1-.2.2-.4.3-.1 0-.1.1-.2.1l-.8.3-.2.4h-.5l-.5.4c-.3.1-.4-.1-.5-.2h-.5l-.7.6h-.9l-.3-.2-.2.4-.6.2-.3-.2-.3.4c-.3.1-.5 0-.6-.1s-.3-.1-.4-.1v-1c-.1-.2-.4-.3-.3-.5l.5-.2c.1-.2-.1-.3-.2-.4v-.4l-.2-.2.3-.3-.2-.3c.2-.2.2-.5.4-.6v-.2s-.1 0-.1-.1l-.3.2c0-.1-.1-.2-.1-.2-.1-.1-.1-.2-.2-.3l.4-.7-.2-.2v-.4l-.2-.2c.2-.1.3-.4.7-.3v-.6c-.2-.2-.4 0-.6-.1-.4-.3-.4-.7-.9-.9v-.3l.3-.3-.4-.1-.1-.4-.4-.1c-.2 0-.2-.1-.2-.2h0zm43.3 39.4v.2l-.3.2v1.9l-.2.2v1.7l.2.2c-.1.1-.1.2-.3.3l.3.3v.6l-.2.2v.4l.2.2v1.5c-.1.1-.2.1-.2.2-.1.4-.3.8-.5 1.1-.1.1 0 .3-.1.4l-.4.3c-.4-.1-.8.3-1.3.2l-.4-.4h-.6l-.1-.4-.9-.3c-.3-.2-.6-.5-.9-.8h-.8c-.1-.2-.3-.4-.5-.6l-.5-.2-.2.2-.2-.4h-.3l-1.1-1-1-.4c0-.1-.1-.2-.1-.3l-.4-.1c-.3-.1-.3-.6-.7-.8-.4.1-.7-.2-1.1-.3-.2 0-.3-.2-.3-.4 0-.1-.1-.1-.3-.2-.4-.1-.8-.3-1.2-.4-.1 0-.2-.2-.4-.2h-.4l-.1-.3c-.5.1-.6-.4-1.1-.5-.4-.1-.7-.4-1.1-.6s-.8-.3-1.2-.5l-.2-.4-.2.2h-.1c-.2-.2-.5-.4-.7-.6h-.2c-.3-.1-.4-.4-.5-.6h-.5c-.3-.1-.5-.4-.8-.6h-.8l-.5-.6c-.6-.2-1-.3-1.3-.6v-.2c-.1 0-.3-.1-.4-.1s-.1-.1-.2-.1h-1c-.3-.4-.9-.4-1.2-.8h-.6l-.6-.6v-.3c-.3-.3-.4.1-.6.1l-1-.8h-.5l-.3-.2h-.7l-.4-.3-.3.2c-.2-.2 0-.3-.2-.5l-.1-.1c-.3 0-.5 0-.7-.2-.3.1-.4-.2-.6-.2s-.3-.2-.5-.2c-.3-.1-.4-.3-.6-.4a1.38 1.38 0 0 1-.4-.3c-.1-.2-.1-.3-.1-.4-.3 0-.6 0-.8-.2-.3 0-.6 0-.8-.2-.3 0-.4-.1-.4-.3 0-.1-.2-.2-.3-.3l-.4.2h-.2c-.2-.1-.3-.2-.5-.4h-.5l-.4-.4c-.1-.1-.3-.1-.4-.1v-.3l-.5-.1c0-.1 0-.2-.1-.3l-.3-.3-.3.2-.3-.2-.3.2c0-.1-.1-.2-.1-.4l-.4-.1c0-.3-.4-.5-.6-.7-.1-.2.2-.3.3-.5l-.3-.3V197l.3-.2-.3-.6.5-.1.1-.1v-2l-.4-.1-.3-.5.2-.2v-1.8l.3-.2-.2-.2.2-.2c.1-.4 0-.9.1-1.3.4-.2 0-.6.5-.8l-.2-.2c0-.2-.1-.5.2-.6-.1-.3.2-.3.4-.4s.3-.2.5-.4h.5l.3.2c.3-.4.9-.5 1.4-.7v-.2l.1-.1h1l.3-.2h.7c.1-.2.4-.2.6-.3s.3-.3.4-.5l.3.2.7-.6c.4 0 .7-.3 1-.3.2-.3.6-.2.9-.2.3-.1.6-.2.8-.4s.3-.4.4-.5c.3-.1.6-.1.9-.1h.7c.2-.2.3-.3.4-.5s.5-.2.7-.4c.1-.2.3-.3.6-.4l.4.2.1-.3c.1-.2.3-.1.4-.2s.2-.2.5-.2l.2.2.6-.2c0-.1.1-.2.1-.3l1.2-.5.2.1c.1 0 .1 0 .2-.1.3-.2.3-.6.6-.7h.8c.2-.1.4-.3.4-.6l.7-.3h1.4l.1-.3.3-.3h.8l.2-.4c.3-.1.6 0 .7-.1l.7-.3c0-.1.1-.2.1-.3l.3.2c.2-.1.2-.4.4-.5l.6-.3.2.1.1.1h1.1c.5-.2.9-.5 1.4-.5.1-.4.4-.6.7-.8h.7l.4-.3-.2-.2.4-.3.3.2c.2-.4.6-.4.9-.6s.5-.5.9-.5c0-.1.1-.2.1-.3l.4-.1.1-.3c.2-.1.4-.1.5-.2.2-.1.1-.3.3-.4s.1-.3.2-.4l.6.3c.1-.2.1-.3.2-.4l.4-.1c.3-.2.5-.6.7-.9l-.6-.2c.2-.3.7-.3 1-.6 0-.2.1-.5-.2-.6l.2-.2-.3-.2.5-.1c0-.2-.2-.2-.3-.3l-.4-.1a1.38 1.38 0 0 0 .3-.4l-.3-.3v-.4l-.3-.2v-.4a.55.55 0 0 1-.3-.5l-.7-.6v-.4l-.6-.4h0l-1.6-1.3-.9-.3c0-.1-.1-.2-.1-.3-.2-.1-.4 0-.7-.1l-.2-.1-.2.2h-.1c-.2-.2-.5-.4-.7-.6h-.3l-.4-.4c-.1-.1-.3-.1-.4-.1 0-.1-.1-.2-.1-.3l-.5.2-.4-.2-.2.2c-.4-.4-1.1-.5-1.3-.9l-.1-.3h-.5l-.5-.4h-.7c-.1-.1-.2-.2-.3-.2-.3 0-.5-.1-.8-.2-.2-.1-.3-.2-.5-.2h-.5l-.1-.4-.4-.1-.2-.2-.3.2c-.3 0-.4-.2-.6-.3v-.2l-.5-.1-.1-.3c-.3-.2-.7 0-1.3-.1-.1-.1-.3-.4-.6-.5s-.6-.3-.8-.5h-1l-.5-.6.1-.1-.2-.2c.2-.2.5-.1.9-.1l.4.5.7-.3.2-.3.2.2.3-.2h.9l.3-.2h.6l-.2.3.1.1h.8l.3.2c0-.2.1-.4.1-.7l.3.2h.7.6c.2-.3.6 0 .9-.3.2-.2.4-.1.6-.1l.3-.2c.3.2.3.2.3.4.1.2.3.2.4.2.1.1.2.2.5.2l.3-.2h.8l.5-.5.2.4c.3.1.6 0 .9 0 0-.1.1-.2.1-.3l1.1-.3h2.8l.3.2h.5l.3-.2h1l.3-.2h.5l.3-.2.2.4h1.3l.3.2.3-.5 1.1.4 1.3 1.1-.2.3.2.2v.6l.3.2-.2.2c-.1.2-.1.5 0 .7l.5.1v1.1l.3.2-.2.2.3.5.4.1v.3l-.5.1v.4a1.38 1.38 0 0 0-.3.4c.3.1.5.2.6.2v1.4l.3.2v1.6c-.2.2-.3.5-.5.7v.6l.3.3a1.38 1.38 0 0 0-.3.4v.5c-.1.2-.5.3-.2.6l.3-.1s.1 0 .1.1v.2 2.7l.2.2v.4l-.3.3.3.4v.8c0 .1-.3.2-.2.4l.2.2-.2.2c-.1.2.2.3.2.4v.6l-.3.3.3.4-.2.2.2.2v.6l-.3.2v1l-.2.2.2.3v.8l.3.2v1.7l.2.2c-.1.1-.2.2-.2.3s.1.2.2.4v.8l-.2.2.2.2v.4l-.2.2.2.2v1.4l.3.2c.1.2-.1.3-.3.4v1l-.3.2.5.1-.5.8c0 .3.4.3.5.5l-.2.2v3.1l-.6.3.2.2-.2.2.2.2-.2.2.2.2c-.1.1-.1.2-.2.3.1.1.2.3.3.4v.3l-.2.2.2.2c-.1 0-.1.1-.2.2-.1.2-.1.5 0 .7l.2.2-.5.7v.5l.5.4-.2.1c-.2.3.1.5.2.7s.1.4.2.6l-.5.1.3.4-.5.5.2.2v.8c.3.4.6.7.5 1.1l-.3.2v.4l.4.3c.1.2.1.4.1.7l-.2.3v.4l.2.2v2.1l-.2.2c0 .2-.1.3.1.5l.3-.1c.2.2 0 .5.1.7l-.3.3.5.1c0 .4 0 .4-.4 1.1l.2.3zm13.9-54v-.4l.6-.5c.1.1.2.3.3.5l.4-.2c.3-.1.5-.1.8-.1l.5.4h.6c.2.2 0 .3.2.6l.2.2-.2.2v.5c-.1.2-.2.3-.3.5 0 .1 0 .3-.1.4h-.3l-.2-.4-.3.2-1-.8-.3.2c-.2-.2-.2-.5-.4-.6-.3-.1-.5-.2-.7-.4l.2-.3zm-3 34.1l-.2.2h-1c-.1.1-.3.2-.5.2s-.3.2-.5.4h-1.1l-.1.3c-.4.2-.8.3-1.2.5h-.4c0 .1-.1.2-.2.4-.3.1-.7 0-1.1 0-.1-.2-.3-.4-.4-.7l.3-.3c-.1 0-.1-.1-.2-.2v-1l.4-.6a1.38 1.38 0 0 1-.3-.4l.3-.3v-1.2l-.3-.2v-.4l-.2-.2v-.6l-.2-.3v-.8l-.3-.3c-.1-.2.1-.3.2-.4v-.4l.3-.2-.2-.2.2-.2c.1-.2-.2-.3-.2-.5.1-.2.2-.4.2-.5 0-.2.1-.3.3-.4l-.3-.2v-1.2l-.2-.1c0-.1-.1-.1-.1-.2v-.9c.2-.1.3-.2.2-.5l-.4-.1-.3-.3 1-1.6v-.6l.6-.2c-.2-.4-.6-.4-.8-.6s-.3-.4-.5-.7c.1-.2.2-.3.2-.5s.1-.4.3-.4v-.6l-.2-.2c-.1-.2.2-.3.2-.4v-.4l.2-.2v-.5l-.2-.2v-.5l-.5-.8.3-.3v-.4l.3-.2v-1.5l.5-.1c.2-.1-.1-.3 0-.5l.2-.2v-1.3l-.5-.1c0-.2.3-.1.4-.2 0-.1.1-.1.1-.2.1-.3.2-.7.5-.9l-.3-.5h0l-.7-.3.4-.4v-.4c.5-.3.6-.9 1.2-1.2h.5l.2.4h.1c.1-.1.1-.2.2-.4.3-.2.4.1.7.2l.5-.2c.3 0 .4.3.7.4h.9l.9.4h.9c.3.2.6.3.5.6h.3l.5.4h.4c.2 0 .4.2.6.3.2 0 .3.2.5.3.3 0 .6 0 .8.2h.5l.3.2h1l.5.4c.2.3.3.5.4.8l.4.1-.2.2v.8l.2.2v1.1l-.2.2.2.2v.8l-.2.2.3.3-.2.3c.1.2.1.4.2.6l-.3.3.4.1c.1.3.1.3-.2.5v.6l.2.2v.5l-.2.2.2.2-.2.2v.8l-.5.4.2.2v.5l.3.4-.3.3.2.2-.2.2c.5.6.5.6.5 1.1l-.2.2v1c-.1.2-.4.3-.3.5l.2.2-.3.3.3.5v.5l.2.2c-.1.2-.3.3-.2.5 0 .2-.2.3-.3.5l.3.3v.4l-.3.2v.2l.4.1c0 .2-.3.3-.2.5 0 .1-.1.3-.2.5l.5.9-.3.3.2.2-.2.2.2.2v.7l-.7.5v.5c-.1.2-.4.4-.6.6-.3-.1-.5.4-.9.2l-.9.4h-.6c-.3.3-.9.3-1.1.6h-.4c-.4 0-.4.4-.8.4-.2 0-.5.2-.7.3v.2c-.3.3-.5.1-.8.2h0zm8.5 8.9l-.5.3a1.38 1.38 0 0 0 .3.4l-.3.3c-.1.3.4.3.2.6l-.5.1.2.3c-.1 0-.2.1-.3.1-.2 0-.3-.2-.5-.2s-.3 0-.5-.1v-.2l-.4-.1-.5-.4h-.5l-.1-.4c-.2-.2-.4 0-.7-.1l-.2-.1h-.8c-.2-.2-.2-.6-.7-.6-.1 0-.2-.1-.2-.2-.1-.2-.2-.4-.4-.6h-.3l-.2-.4-.3.2c-.1-.2 0-.5-.2-.6-.1-.1-.1-.3-.2-.4l-.4-.1c0-.2-.1-.4-.1-.6l-.3.2c-.2-.1-.2-.3 0-.4h.3a.76.76 0 0 0 .2-.4l.2.2h.2c-.2-.3.4-.4.3-.6l.7-.3h.8l-.2-.3.1-.1c.2 0 .4 0 .6-.1.3-.2.6-.3.9-.5l.3.2.3-.2h1c.1-.3.3-.5.5-.6h.5l.3.2c0-.2.1-.4.1-.6.4.1.1.4.2.5l.3.2v.6l.3.3c.2.2-.2.4-.3.7l.2.2c.1.4 0 .7.1 1.1l.5.1-.3.3.3.4-.2.3c-.2.4.4.8.2 1.4h0zm1.1 33.5c-.1-.1-.1-.1 0-.2v.2zm.2 1.4h0c0 .1 0 .1 0 0v.1-.1c-.1.1-.1 0 0 0h0zm.1 1.4v-.1l-.2.2c0-.1-.1-.1-.1-.1l.3-.1v.1h.2-.2zm2.6-51.8l.5-.1c.1-.1-.1-.1-.2-.3v-.7l-.6-.9.3-.3v-.4l-.2-.2v-1.3s.1 0 .1-.1l.3.2.4-.3-.5-.2c.1-.1.2-.1.2-.2v-.6l.5-.4-.2-.2.2-.2v-.8l-.2-.2v-.6l-.3-.3.6-.6-.4-.1-.2-.4-.3.2c-.1-.4 0-.7-.1-1l.4-.1c.2-.1 0-.3.1-.5l.5-.4v-.7l.2-.2-.2-.2.2-.2-.5-.4.2-.2c-.2-.2-.4-.1-.6-.1 0-.1-.1-.2-.2-.3l.6-.3v-.7c.2-.2.5-.1.7-.2l.4-.8h.8l.3.2c.1-.1.3-.2.3-.4.1-.1.1-.2.3-.2s.3-.3.6-.2c0 0 .1 0 .1.1l-.2.2c.2.2.4.1.6.1l.3.2h1.3l.3-.2c.1.1.1.3.2.4l.3-.2h.8c0 .1.1.2.1.3.3.2.8 0 1.2.1l.2.2.3-.2 1.1.4h.9c.2-.1.4-.2.7-.2l.7.6h.9l.3.2h1.5l.2.2.6.1c0 .1 0 .2.1.3s.4 0 .5.1.3.1.4.2l.5-.2c.4.1.6.5.9.6h.2s.1 0 .1.1v.2l.7.3.2-.2.3.3-.2.2c.1.2.4.1.5.1.3.1.6.3.5.6h1.4l.3.2.3-.2c.1 0 .2.1.3.1a1.44 1.44 0 0 0 .3.2c-.1.3.4.4.3.6.2.1.4.2.5.2.1.1.3.1.4.1 0 .1.1.2.1.3l.4.1c.1.1.3.2.4.3s.3.1.4.1c.1.2-.1.3-.2.5v.6c-.3.3-.6.4-1 .5-.3.1-.6.3-.9.4l-.2-.1c-.1 0-.3.1-.3.3l-.8.3h-.4c-.1 0-.1.1-.2.2h-.5c-.2.1-.3.2-.5.2-.2.3-.5.1-.8.2-.3.5-.3.5-1 .8-.4.2-.8.3-1.1.5v.2c-.2.2-.6.1-.9.1l-.3.4h-.6c-.2.2-.2.6-.7.6-.3.1-.5.3-.9.2 0 .2-.1.3-.1.4l-.7.3H353l-.4.4h-.6l-.2.2c-.4-.1-.8.1-1.1.3s-.7.4-1.1.6h-.7c0 .1-.1.2-.2.4-.4.1-.9 0-1.2 0l-.7.3-.2.3h-1l-.5.4-.5-.3-.2.5h-.5l-.3.2h-.5l-.4.4c-.2 0-.4 0-.6.1-.1.1-.2.2-.5.1 0-.1-.1-.2-.1-.2-.1-.1-.1-.2-.2-.3v-.6l.2-.2-1.1-.2zm40.4 36.7l-.3.4c0 .1-.2.4.2.5v.9c-.3.2-.3.5-.6.7h-.6c-.1-.1-.2-.3-.4-.4h-.9l-.5-.6h-.3l-1-.8h-.5c-.2-.4-.8-.4-1.1-.7-.4-.3-.5-.7-.9-.9h-.7c-.1-.1-.2-.1-.4-.2-.1 0-.2-.1-.3-.1v-.3l-.5-.1c0-.1 0-.2-.1-.3-.1 0-.2 0-.3-.1-.7-.6-1.8-.7-2.6-1.2-.4 0-.5-.3-.8-.4h-.2c-.4-.2-.6-.6-1.1-.7-.3-.2-.5-.6-.9-.7-.6-.2-1-.7-1.7-.8 0-.5-.6-.5-.9-.8l-.2.2c-.3 0-.3-.3-.7-.4h-.4l-.4-.4h-.9l-.2-.4c-.4 0-.5-.2-.8-.5h-.8l.3-.3c-.3-.2-.6 0-.8-.1-.2-.4-.5-.7-.9-.8s-.7-.5-1.3-.6h-.3l-.3-.2h-.5c-.2-.1-.3-.4-.7-.4-.1 0-.3-.2-.4-.2-.2-.1 0-.4-.3-.4-.2 0-.3-.2-.4-.2-.2 0-.4-.1-.5-.2h-.4l-.7-.3c-.3-.2-.5-.5-.8-.7-.2-.1-.5-.3-.7-.3-.4 0-.6-.3-.9-.3-.3-.4-.8-.4-1.2-.7-.3-.2-.8-.3-1.2-.5s-.8-.4-1.3-.5l-2.5-1c0-.2.1-.4-.1-.5l-.3.2c-.1-.2-.3-.5-.5-.6h-.3c0-.1-.1-.2-.2-.4l-.4-.1c0-.1-.1-.2-.1-.3l-.2-.2.7-1.1-.2-.2c.1-.1.2-.1.2-.2v-.6c-.2-.1-.2-.4-.4-.5-.1-.1-.3-.2-.5-.4.2-.3.3-.5.5-.9v-2.2l-.2-.2V194c.1-.1.2-.1.2-.2l-.3-.3c.1-.1.1-.2.3-.4v-1.3c.3-.3.4-.7.8-.9s.8-.3 1.2-.5h.4l.1-.4c.4-.1.7-.4 1.1-.3l.2-.4c.2-.1.4 0 .6.2l.3-.5h.6l.5-.4h.6c.3-.2.7-.3 1.1-.4h.3c.3-.1.3-.4.7-.4.3 0 .4-.3.6-.4.3-.1.5-.2.7-.4.2-.1.4-.2.7-.3h.7c.4-.4 1-.5 1.6-.8h1.1l.5-.2.5.2c.3 0 .4-.3.7-.4h.4c.4-.1.7-.3 1.1-.4h.3l.2.2c.2-.1.5-.2.8-.2l.3-.2h.8l.4-.4h.5c.3-.1.5-.4.7-.5v-.2c.2-.1.5-.2.7-.4s.5-.2.7-.4h.7c.1-.1.3-.3.5-.4s.4-.1.5-.2c.3.1.4-.2.7-.2l.3.2.2-.2c.7-.2 1 .4 1.7.4 0 .2 0 .4.1.5l.2.2-.3.2.5.3v.5c.7.4.9 1 1.3 1.5l.6 1c.2.2.1.4.2.6l.2.2c0 .1-.1.1-.1.1-.2.1-.1.4-.3.5-.1.1-.1.3 0 .4.2.2.2.5.5.7v.8c.2.1.2.3.3.4.1.2.3.3.4.4l-.2.2v.4c-.1.1-.2.2-.3.2l.5.4v.7l.5.4c-.1.2-.3.4-.4.7l.3.5.4.1v.4c0 .2-.4.3-.2.6l.3.1s.1 0 .1.1v1l.3.3v.4l.3.3-.3.3v.4l.5.4c0 .1.1.2.1.4h.3l.7 1.1-.3.3v.4l.1.1c.2 0 .4 0 .4.3l-.5.5.8 1.3v.6c.4.2.4.5.7.8l-.2.2.2.2c.1.2-.2.3-.2.4v.4l.5.1v.7l-.2.2.5.1-.5.7 1 .4v.4c.1.1.1.2.2.3l-.5.1.5.4-.2.2v.2l.5.1-.2.2c0 .2.2.1.5.3 0 0-.1.2-.1.4l.2.2v.4l-.3.2.4.1c.3.3.4.8.9 1.1l-.2.4c.1.1.2.1.2.2l-.2.2.2.2-.2.2c.2.1.4.3.5.4 0 .2.2.3.3.4v1.5l.5.1-.2.2v1.3l.5.3v.5l.3.3-.3.3v1l.2.4zm10.8-6.7c.1.1.1.2.2.3l-.2.2v1.1l-.5.3v.7l.2.2c.1.2 0 .3 0 .5l-.2.2.2.2-.2.2v.8s0 .1.1.1l.2.1-.3.2v.4l-.3.2v.4l-.2.2v1.2l-.3.3v1.4l-.2.2v.6l-.3.2v1.2l-.3.2v.3c-.1.2-.3.4-.4.6h-.5c-.3-.2 0-.5-.2-.8l-.3-.1-.3-.5.2-.2v-.2l-.3-.2v-.6l-.5-.1c0-.1 0-.4-.1-.5-.2-.2-.2-.4-.2-.6s-.3-.2-.3-.4 0-.3-.2-.4l.2-.2-.2-.2v-.4l-.2-.2v-.7l-.2-.2.2-.2c0-.4 0-.4-.2-.6l.2-.2-.3-.2v-.4l-.3-.2v-1.2l-.7-.6c.1-.1.2-.1.2-.2v-2.1l-.2-.2v-.8l-.2-.1c0-.1 0-.1-.1-.2v-.7l.2-.2-.2-.2v-.9l-.5-.1v-.4l.5-.4-.2-.2c.1-.2.2-.3.3-.5h.3c.1-.1.2-.1.3-.2.1.1.1.3.2.4l.3-.1c.3.3-.1.4-.2.5l.1.3h1.1l.4.4c.2.1.5.1.6.3s.3.3.4.4c.2.1.4.1.5.2h.5l.5.4.4.1v.4c.2.1.2.3.4.6l.3-.2.3.6-.2.1c.1.3.5.3.8.5l-.5.1c.3-.3.3-.2.4 0h0 0zm46.3 3.6l-.2.2.2.2-.2.2.2.2-.2.2.2.2c-.1.2-.3.4-.4.6-.2.2-.4.3-.5.5l.5.4-.2.2.3.3-.3.4v.8l.6.4-.3.5.2.2v1l.2.2c-.2.3-.3.7-.7.8v.2s.1.1.2.1l.1.1c-.3.2-.2.6-.7.7h-.3l-.7-.3c-.2-.1-.5-.3-.6-.5-.2-.3-.6-.1-.8-.4l-.5.2c-.3 0-.4-.1-.4-.3l-.4-.3-.6-.1c0-.1-.1-.2-.1-.3l-1.1-.9c-.4 0-.5-.3-.8-.4h-.5c-.5-.3-.7-.6-1.2-.9-.4-.2-.7-.5-1.1-.8h-.8c0-.2-.1-.4-.1-.6l-.4.2c-.4-.1-.6-.4-.9-.6l-.3.2-.1-.3c-.3-.1-.5-.3-.8-.5l-.9-.3v-.5l-1-.6v-.2l-.6-.5-.3.2-.7-.6c-.2 0-.3.3-.6.1l.2-.2c-.1-.2-.2-.3-.3-.5-.4 0-.6-.4-.9-.5s-.4-.3-.7-.4h-.5l-.3-.2h-.5l-.4-.3v-.2l-1.2-.5h-.7l-.3-.2-.3.2c-.3-.5-1-.5-1.5-.8h-.5l-.5-.4h-.5l-.2-.4h-.9c0-.1-.1-.2-.1-.3-.2-.2-.5 0-.9-.1l-.4-.4h-.9l-.9-.8-.7-.3h-.4l-.3-.2h-.5l-.3.2-.1-.4c-.2-.1-.6-.1-.9-.3l-1.4-1.2c-.2 0-.5-.1-.6-.3-.2-.2-.5-.4-.8-.6-.4-.1-.7-.3-1-.5l.2-.2v-.6l-.2-.2.2-.2v-.7l-.2-.2.6-1 .6-.1c0-.1 0-.2.1-.3l.4-.1c0-.1 0-.2.1-.3.3-.2.6 0 .9-.1l.3-.3c0-.1 0-.3.1-.5h.9c.1 0 .1-.1.2-.1.5 0 1-.4 1.5-.3.2 0 .3 0 .5-.1.2-.2.7.1.9-.3h.5c.2-.2.4-.4.6-.5s.4-.2.7-.3h1.1l.3-.2h.7c.3-.1.5-.4.6-.6l.3.2.5-.4c.3-.1.6.1.8-.2h.7c.2-.1.2-.2.2-.3.2-.2.4 0 .6-.1l.3-.2.3.2.5-.4h.7c.3-.3.9-.3 1.1-.6h.5l.3.2c.1-.1.1-.3.2-.4l.3.2 1.1-.6c.4-.2.8-.3 1.1-.5s.7-.3 1-.4.6-.4 1-.3c.3-.2.6-.2.9-.2.2-.3.5-.1.8-.2.1 0 .1-.1.2-.2h1c.1-.1.2-.3.3-.4.1-.2.4-.2.6-.3s.3-.1.5-.2c0-.1.1-.2.1-.3h.8l.3.2c0-.1.1-.2.1-.4l.4-.1c0-.1.1-.2.1-.3.1 0 .1-.1.2-.1.3-.1.6-.3.8-.6.2-.2.4-.3.6-.5h.6l1.8-.7.1-.2c.3-.1.6-.3.8-.5s.6-.2.8-.4h1.4l1.2.5c-.2.4-.5.8-.7 1.2v.3l.4.1c.4.5.6 1.1 1.1 1.6l-.2.2c0 .1 0 .3-.1.5l-.5.2.2.2c-.4.5-1 .8-1.7 1-.2.1-.6.1-.7.4-.1.2-.4.1-.6.3s-.4.3-.6.5h-.4c-.4.1-.7.3-1.1.4-.3.2-.7.2-.9.5-.3.2-.8.3-.9.6-.3 0-.7-.1-.8.2l-.2-.2-.9.4h-2.4c-.1.2-.5.2-.7.4-.1.1-.2 0-.3.1h-.2c-.2.3-.8 0-1 .4-.4 0-.5.3-.8.4h-.3c-.1.2-.4.4-.4.6 0 .4-.5.1-.6.4-.1.2-.5.2-.7.4.2.1.3.3.1.7l-.4.2v1.5c-.1.1-.2.2-.3.2v.6l.2.2-.2.2.3.3.4.1v1.1c.3.2.7 0 1 .2l-.2.2c.1.2.4.1.6.1s.3-.3.6-.2l.1.1c.1.1.1.3.1.3.4 0 .5.4.8.4.4 0 .5.3.7.4h2.3l.3.4h.7l.3-.2h1.8s.1 0 .1.1l-.2.2c.1 0 .3 0 .4.1.3.4.9.4 1.2.8h1.3l.2.2c.2.1.5 0 .7.1s.5.2.7.3.2.4.4.5h.3c.1.1.4.6.4.9.3.4.9.4 1.3.7v.8l-.2.2.2.2-.2.2.3.3v.8l.5.1c.1.3 0 .6 0 .9l.3.2-.6.2zm-.7-13.1c-.2.3-.3.7-.8.9-.6-.4-.7-.5-.9-.8h-.6l-.3-.4v-.3c.2-.1.5-.2.7-.4s.5-.1.7-.4l.2.2h.5l.4.3-.2.2v.4l.3.3zm15 32.5l-.1.1c-.1 0-.1-.1-.2-.1v-.1l.3.1zm-.4-.4v-.1h.2l-.2.1zm-.2-.3h.4.1v.1c-.1 0-.3.1-.4 0l-.1-.1h0zM217 174.4c.4.2.9.3 1.2.3-.9-.3-.9-.3-1.2-.3zm24.8-5.4l.1-.1c-.2 0-.4-.1-.5-.1-.2 0-.5.1-.7.1.2.2.7.1 1.1.1h0 0zm28.9 70.3c-.2 0-.4.1-.4.3s.2.4.4.4.4-.1.4-.3h0c-.1-.3-.2-.4-.4-.4h0 0zm8.6-8.1h.2c0 .1.1.1.1.2h.1c-.1-.1-.1-.2-.2-.2-.1-.1-.2-.1-.3-.1h-.1v.2c.1.1.1.1-.1.1l.3.1v-.3h0zm-6 7.3l.1.1.1-.1s0-.1-.1-.2c-.1.1-.2.1-.1.2h0 0zM49 204.9a.9.9 0 0 0 .5.1l.1-.2-.5-.2c-.1.2-.1.2-.1.3zm196.1-52.7l-.4-.1v.1c.1 0 .2.1.4.1v-.1zM450 175.5h.2.3.3l-.3-.5h.3s.1-.1 0-.1c-.1-.1-.2-.1-.3-.2v-.2h-.1v.2c0 .3.1.5-.2.8-.2-.1-.2 0-.2 0zm-.6-1.6c.2.2.6.1.7-.1-.2 0-.5.2-.4-.2h-.2c-.2 0-.3-.2-.5 0 0 .2.3.2.4.3h0zm1.6.6h0c.2.1.4.1.5.1-.1 0-.1.1-.2.2l.2.2.3-.3v-.2h-.2l-.1.1-.3-.3c-.1-.1-.1-.1-.2-.1-.1.1-.2.2-.3.2.2 0 .2 0 .3.1h0zm-.6 2.8l-.1.4.7.2c0-.1-.1-.2-.1-.2-.2-.2-.4-.3-.5-.4h0zm.1-4.1h.2v-.2c-.1-.1-.2-.2-.4-.3-.1.1-.1.2-.1.2l-.1.1h.2c.1.2.1.2.2.2h0zm1.3 4c-.1 0-.2.1-.2.1l.2.2c.2 0 .4 0 .5-.1-.1-.3-.3-.2-.5-.2h0zm-1.2-3.6c-.1.2-.2.3-.4.5.3-.1.5-.2.6-.5 0-.1 0-.1-.1-.2 0 .2 0 .2-.1.2h0zm-2 .2s.1 0 .1.1c.1-.1.2-.2.3-.2l-.4-.3c-.1.1-.1.2-.2.3h.4c-.1-.1-.1 0-.2.1h0zm3.5 0l.2-.3h-.1l-.3.2v-.1c-.1 0-.1-.1-.2-.1l-.2.3h.2.4 0zm-.8 1.2h0l-.3.2-.2.1s0 .1.1.1.2.1.3.1c0-.1-.1-.1-.1-.2.4 0 .1-.2.2-.3h0zm1 .3l.1.1.1-.1c0-.1-.1-.3-.2-.5l-.2.2c0 .1.1.2.2.3h0zm-.5.5v-.3l-.1-.1-.3.2.4.2zm-3.8-1.6c-.1-.1-.2-.3-.3-.4-.1.1-.1.2-.1.2a1.38 1.38 0 0 1 .3.4c0-.1.1-.2.1-.2h0zm5 2.5s.1 0 .1-.1c0 0 0-.1-.1-.1a.47.47 0 0 0-.6.1c.2 0 .4.1.6.1h0 0zm-7.5-1c.1 0 .2 0 .3-.1v-.1l-.5-.1-.1.1c.2.1.2.2.3.2h0zm6 1.9l.4.5c.3-.3-.2-.4-.2-.6l-.2.1zm-6.4-2c-.1 0-.2-.1-.4-.1v.1l.4.3c.1-.1.1-.3 0-.3h0zm3.8-.9l.6.1c-.3-.4-.5-.4-.6-.1h0zm3 4.4s.1 0 .1-.1l-.2-.3c-.1.1-.2.1-.2.2.1.1.2.2.3.2h0 0zm.7-3.4l.5-.2c-.2 0-.5-.1-.5.2h0zm-5.6-.8h-.1v.3h.4c-.2-.1-.3-.2-.3-.3h0zm-1 1.6c0-.1-.1-.2-.1-.3l-.4.3h.5zm-.2-2l-.3-.2-.1.1c.1.1.2.1.3.2 0 0 0-.1.1-.1h0 0zm-9 4.4c0-.1 0-.3-.1-.4h-.3c.4.1 0 .5.4.4h0zm17.2-2.1l-.1-.1c-.1.1-.2.1-.3.2l.1.1.3-.2zm-4.4-3.5c0-.1.1-.1.1-.2l-.5.1c.2.1.3.2.4.1h0zm-4.9 3.1c-.1 0-.2-.1-.4-.1 0 0-.1.1-.1.2l.5-.1c0 .1 0 0 0 0h0zm4-2.1v-.1h-.4v.1h.4 0zm3.1 4.3h0l-.1-.4c-.2.2.1.3.1.4h0zm-68 62.9c0 .1 0 .1.1.2.1 0 .2 0 .2-.1.1-.3.1-.4-.3-.5-.1 0-.1-.1-.2-.1h-.2v.1c.2.1.3.1.5.2 0 .1-.1.1-.1.2h0zm-.3-2c.2.1.4.1.5-.2l-.3.1c0-.1 0-.2.1-.4h-.3c.1.2 0 .4 0 .5h0zm1.4 2.9c-.1 0-.3.1-.4.1l.1.1h.4l.1-.1c-.1 0-.2-.1-.2-.1h0 0zm8.9 3.6s.2-.1.1-.1c0-.1-.1-.1-.1-.1h-.2v.2h.2 0zm-8.8-2.5c0 .1.1.1.2.2 0 0 .1-.1.2-.1-.1-.1-.2-.1-.3-.2.1 0-.1.1-.1.1h0zm2.6 1.6l.1.1.2-.2-.2-.2c0 .1-.1.2-.1.3h0zm-.8-.6c-.1 0-.3.1-.4.1l.5.1h.1c-.1 0-.1-.2-.2-.2h0zm.6 0v.3s0 .1.1.1h.1v-.1c-.1-.2-.2-.2-.2-.3h0zm-3.8-3.6c.1-.1.2-.1.3-.2v-.1h-.2c-.1 0-.1.1-.1.3h0zm3.8 3.3h-.1c0 .1-.1.2-.1.2l.1.1.1-.3zm-170.2-2.1l.3-.2a.76.76 0 0 0-.4-.2h-.2v.1h.3v.3zm1.6 1.3l.1.2.5-.3-.3-.1-.3.2zm12.5-1.3h-.2c-.1.1-.2.1-.3.2l.2.2.2-.2c.1 0 .1-.1.1-.1.1 0 .1-.1 0-.1zm-13.8-4.6c-.1.1-.1.2-.2.3l.2.1.2-.2v.3l.2-.1c-.1-.1-.1-.4-.4-.4zm.3.7c-.1 0-.1 0-.2.1v-.1l-.1.2c.1 0 .1.1.1.1l.1.1.2-.2v-.1c0-.1-.1-.1-.1-.1zm1.2 4.7l-.2-.2h-.4l.3.3.3-.1zm-1.8-.3c-.2.1-.3.3-.4.4.3 0 .5-.1.4-.4.1.1.1.1 0 0h0zm.2-3.6h.4l-.3-.4-.1.4zm.5 0h0 0zm-1.1-.9h.1l.1-.1c-.1-.1-.2-.2-.4-.3 0 .1-.1.1-.1.2.1 0 .2.1.3.2h0zm1.9 6.1c-.2 0-.3.1-.2.3l.3-.2c0-.1-.1-.1-.1-.1zm11.3-1.3v.3h.1l.1-.1v-.3c-.1.1-.2.1-.2.1h0zm-7.8 2.6v.1h.2c.1-.1.1-.2.1-.3h-.1c0 0-.1.1-.2.2h0 0zm-2-1.3l-.2.2.1.1.2-.2c0 0-.1 0-.1-.1zm3.8 1.2h0l.2.2.1-.2-.1-.1-.2.1zm-7.2-5.4l-.3-.1v.1h.3 0zm-1.2 1.7l.2.3.2-.1-.4-.2h0zm8 3.9v.3h.2l-.1-.3h-.1zm2.9-.5c.1.1.2.1.3.1 0 0 .1 0 .1-.1l-.3-.2c0 .1-.1.1-.1.2h0zm.6 0c.1.1.2.1.2.2 0 0 .1 0 .1-.1s-.1-.2-.3-.1c.1-.1 0-.1 0 0h0zm-9.9-3.9v.3c.2 0 .1-.2.2-.3h-.2 0zm14.1-1c0 .1.1.1.1.2 0 0 .1 0 .1-.1s-.1-.1-.1-.2l-.1.1zm-40.2-92.7c.1 0 .1-.1.1-.2-.1 0-.2-.1-.3-.1-.2.1-.3.3-.4.4l.1.1c.2 0 .4-.1.5-.2zm2.8 2.5h.2v-.1c0-.1-.1-.2-.1-.3v-.1l-.4.1c.1.1.1.2.2.2 0 .1 0 .2.1.2zm-13.3-9c-.1-.1-.2-.2-.4-.2 0 0-.2.1-.2.2.1.1.1.2.2.3l.4-.3zm3.2.7h0c.1-.1.1-.2.1-.3 0 0-.2-.1-.3 0-.1 0-.1.1-.1.2.1 0 .2.1.3.1h0zm6.2 5.3c.1.1.4-.2.4-.4l-.5.2c0 0 0 .1.1.2h0zm-7.8-6.9l.2-.1c0-.1-.1-.1-.3-.3-.1.1-.2.2-.1.3 0 .1.1.1.2.1h0zm9.2 10.1h0c-.1-.2-.2-.3-.3-.3l-.2.3c.1 0 .3.1.4.1s.1 0 .1-.1h0zm-.5 1.9c.1 0 .1-.1.2-.1l-.3-.3c0 .3-.1.4.1.4h0zm.7.6l.1-.1-.4-.2v.1c.1.1.1.3.3.2h0zm-.1-2.2c-.3-.1-.3.2-.4.2 0 0 0 .1.1.2l.3-.4zm-1.9-4.2l.1-.1-.1-.1-.1.1-.2-.1c-.1.2.1.1.3.2h0zm2.2 1.9l-.5.1c.4.1.5.1.5-.1h0zm0 .7c-.1.1-.2.2-.2.3l.1.1.3-.3c-.1-.1-.1-.1-.2-.1h0zm-14 2.2l-.4.2c.3.2.3.1.4-.2h0zm14.8-1l.2-.3v-.1c-.1 0-.2 0-.2.1-.1.1-.1.2 0 .3h0zm-16.7-.1l-.3-.2-.1.1c.1.1.1.2.2.2s.1 0 .2-.1h0zm3.3-7.7l-.2-.1-.1.2.1.1.2-.2zm159.7 96.1c-.1 0-.1 0-.1.1v.2l-.1-.1h-.1v.1a.78.78 0 0 0 .4.4h.2v-.1l-.1-.1c.1 0 .2-.1.2-.3-.3-.1-.3-.2-.4-.2h0 0zm8.6-2.6c-.1 0-.1-.1 0 0-.2-.1-.3-.1-.4-.1s-.2 0-.3.1h-.1c-.1 0-.2-.1-.2 0 0 0-.1.1-.1.2h.2.2.2c.1.1.2.1.3 0 .1-.2.1-.2.2-.2h0zm-.9-2.4s-.1 0-.1.1v.1c.1.2.2.3.2.5.2-.1.2-.2.1-.3s-.2-.1-.2-.4c.1.1.1.1 0 0h0zm1.4 2.9c-.1 0-.2.1-.3.2v.1s.1 0 .1.1c0 0 .1 0 .1-.1.1 0 .1-.1.2-.1v-.2h-.1 0 0zm-8.2 3h-.1v.1h-.3l-.1.1h.2c.1 0 .2 0 .3-.1 0 .1 0 0 0-.1h0zm5.6-8c.5-.2.5-.3 0-.6v.1c.2.1.1.1 0 .2.1.1.1.2 0 .3h0zm2.5 2.6v-.2s0-.1-.1-.1l-.1-.1c-.1 0-.1.1-.2.1v.1l-.1.1h.2l.3.1zm-1.3.9c.1 0 .2-.1.3-.1l-.2-.2c-.1 0-.2.1-.3.2.1 0 .2.1.2.1h0zm-3.2 4.9s-.1.1-.2.1l.2.2c.1 0 .2-.1.2-.2 0 0-.1-.1-.2-.1h0zm-6.7-3.4c.1.1.4.1.2.4l.4-.1-.4-.3h-.2zm1.6 1.3s0-.1 0 0c0-.1 0-.1-.1-.1h-.2 0l-.1.1c0 .1.1.1.2.1 0 0 .1-.1.2-.1zm1.1 2.1s0 .1 0 0c0 .1.1.2.2.3.1-.1.1-.1.2-.1 0 0-.3-.2-.4-.2h0zm8.1-3.5v-.2l-.1-.1-.1.1c-.1.2.1.2.2.2h0zm-7.5 3.6l.2.1.1-.1-.1-.1-.2.1zm6.9-5.7h0v.2c.1 0 .2 0 .3-.1h0l-.3-.1zm-10.7-.1h0l.3.1v-.1l.2-.2-.5.2zm7.2 7.6c.1 0 .1.1.2.1l.1-.1c0-.1-.1-.1-.1-.2l-.2.2zm.3-2.2c-.1 0-.1.1-.1.1s.1.1.1.2c.1-.1.1-.1.1-.2 0 0-.1 0-.1-.1h0zm-5.9-2.6c-.1 0-.2.1-.3.1v.1h.2l.1-.1c.1-.1 0-.1 0-.1h0zm8.3-5.1s.1.1.2.1c0 0 .1 0 .1-.1v-.1c-.1 0-.1-.1-.2-.1 0 .1 0 .2-.1.2h0zm2.3 5.9c.1 0 .1.1.2.1s.1-.1.2-.1c-.1 0-.2-.1-.2-.1-.2 0-.2 0-.2.1h0zm-2.7.2l.1.1c.1 0 .2-.1.2-.1-.1 0-.2-.1-.2-.1s0 .1-.1.1zm-7.8.1s0 .1.1.2c.1-.1.1-.1.1-.2l-.1-.1-.1.1h0zm-.2-4.1c-.3-.2-.3-.2-.4-.1 0 .2.1.2.4.1zm-.8-2.3c-.1 0-.2 0-.2-.1s-.1 0-.2-.1v.1l.4.2c-.1-.1 0-.1 0-.1h0zm8.5 9.2l.1.1.2-.2-.2-.1c0 .1 0 .2-.1.2h0zm-2.2-.3c.1 0 .2-.1.2-.1l-.1-.1-.1.2c-.1 0-.1 0 0 0h0 0zm2.4-1.6v-.3h-.1c0 .1 0 .2-.1.3h.2c-.1.1 0 .1 0 0h0zm-6.8 1.1l.2.1.1-.1c-.1 0-.1-.1-.2-.1s-.1.1-.1.1h0zm2.8 3.3l.1.1s.1 0 .2-.1c-.1 0-.1-.1-.2-.1 0 0-.1.1-.1.1h0zm-2-4.4h0l-.2-.2h-.2v.1c.2 0 .3.1.4.1h0zm-3.8-3.7l-.4.3.1.1.3-.4h0zm10-3c.1 0 .1-.1.2-.1h0-.3 0l.1.1h0zm-1.7 7.6h0c.2 0 .3-.1.3-.2h0l-.3.2zm2.1-2.3l.1.1.1-.1-.1-.1s-.1 0-.1.1h0zm-1-6.3l.2-.1-.1-.1-.1.2h0zm-3.4 15.5l.1.1c.1 0 .1 0 .2-.1-.1 0-.1-.1-.2-.1 0 0-.1.1-.1.1zm5.4-11.4s.1 0 .2-.1l-.4-.1h-.1c.1.1.2.1.3.2h0 0zm-2.4 4.9l.1.1.1-.2h-.1l-.1.1zm-4.3-1c-.2 0-.2 0-.1.1h.2v-.1c0 .1-.1.1-.1 0h0zm6.9-4.2c-.1 0-.1 0 0 0 .1.1.1.2.2.2h0c0-.1-.1-.2-.2-.2h0zm-4.2 7.5s.1.1.1.2c0-.1.1-.1.1-.1l-.1-.1c0-.1-.1 0-.1 0h0zm4.1-3.3l.1.2c.1-.1.1-.1.1-.2h-.2 0zm.9-4l-.1-.1-.1.1c0 .1.1.1.1.2 0-.2.1-.2.1-.2h0 0zm-.5.6c-.1.2-.1.3.1.3 0-.1 0-.2-.1-.3h0zm-.9-.4l.1.1c.1 0 .1-.1.1-.1l-.1-.1c0 0 0 0-.1.1h0zm-1 2.9c-.1 0 0 0 0 0 .1.1.2 0 .2 0l-.1-.1c-.1 0-.1 0-.1.1h0 0zm-2.3 2.3c.1 0 .1-.1.2-.1 0 0 0-.1-.1-.1l-.1.2h0zm-6-1.9l.2.1.1-.1h-.3 0 0zm9.1.5l.1.1s.1 0 .1-.1c-.1 0-.1-.1-.1-.1s-.1 0-.1.1zm-8.2-1.2l-.1.1v.1h.1l.1-.1s-.1 0-.1-.1h0zm115.5-1.5s-.1 0 0 0c-.2-.1-.3-.1-.4-.1h-.3-.1-.2l-.1.1h.2.2.2c.1.1.2.1.3 0 .1.1.2.1.2 0h0 0zm-.8-1.6h-.1v.1c.1.1.2.2.2.3.2-.1.2-.1.1-.2-.1 0-.2-.1-.2-.2h0 0zm1.3 2c-.1 0-.2.1-.3.1v.1s.1 0 .1.1c0 0 .1 0 .1-.1.1 0 .1-.1.2-.1v-.1c.1 0 0 0-.1 0h0zm-3.5-3.7v.1c.1 0 .1.1.2.1h.2s.1 0 .1-.1c0 0-.3-.2-.5-.1zm1 .1c.5-.2.5-.2 0-.4v.1c.2 0 .1.1 0 .2v.1h0zm2.4 1.9v-.1s0-.1-.1-.1l-.1-.1c-.1 0-.1.1-.2.1v.1l-.1.1h.2.3zm-1.5.9c-.1 0-.1 0-.1.1 0 0 0 .1.1.1s.2.1.3.1h.1c0-.1-.1-.1-.2-.2s-.2-.1-.2-.1h0zm.3-.3c.1 0 .2-.1.3-.1-.1-.1-.2-.1-.2-.1-.1 0-.2.1-.3.1 0 .1.1.1.2.1h0 0zm-2.8-3.3l.3.1.1-.1-.1-.1c-.2 0-.3.1-.3.1h0zm3 4.9h-.3c-.2 0-.1.1 0 .2.1-.1.3 0 .3-.2h0zm-1.2.1c.1.1.2.1.2.1h.1s0-.1-.1-.1c.1-.1-.1-.1-.2 0h0zm1.8-.6v-.1l-.1-.1s-.1 0-.1.1c-.1 0 .1 0 .2.1h0zm-.6-1.6h0v.2c.1 0 .2 0 .3-.1h0l-.3-.1zm-.8 1.6l.3-.1-.3-.1v.2zm-2.7 3.8c.1 0 .1.1.2.1 0 0 .1 0 .1-.1s-.1-.1-.1-.1l-.2.1zm.3-1.5c-.1 0-.1 0-.1.1l.1.1.1-.1c0-.1-.1-.1-.1-.1h0zm2.5-5.6s.1.1.2.1h.1 0-.2l-.1-.1h0zm2.2 4.2s.1 0 .2.1c0 0 .1 0 .2-.1-.1 0-.1 0-.2-.1-.1.1-.2.1-.2.1h0zm-2.6.2l.1.1c.1 0 .2 0 .2-.1-.1 0-.2-.1-.2-.1l-.1.1zm-.4 2.1h.1l.2-.1-.2-.1-.1.2zm-2.3-.3h0 .3l-.1-.1-.2.1zm2.5-1.1v-.2h-.1c0 .1 0 .2-.1.2h.2c0 .1 0 0 0 0h0zm-4 3.1l.1.1s.1 0 .2-.1c-.1 0-.1-.1-.2-.1 0 .1 0 .1-.1.1h0zm4.4-8h0-.3 0l.1.1c.1 0 .1-.1.2-.1h0zm-1.9 5.5h0c.2 0 .3 0 .3-.1h0l-.3.1zm2.1-1.6h0 .2-.2c.1-.1 0-.1 0 0h0zm-3.3-5.3h.1c0-.1 0-.1.1-.2h-.1c0 0 0 .1-.1.2h0zm2.3.8l.2-.1-.1-.1-.1.2h0zm-3.3 11.1s.1 0 .2-.1c-.1 0-.1 0-.2-.1 0 0-.1 0-.1.1s.1.1.1.1h0zm5.5-8.2l-.3-.1h-.1c.1 0 .1.1.2.1h.2 0zm-2.6 3.5h.1l.1-.1h-.1l-.1.1zm2.6-3.7c.1.1.1.1.2.1h0s-.1-.1-.2-.1h0zm-4 5.3s-.1 0-.1.1l.1.1.1-.1c-.1 0-.1-.1-.1-.1h0zm3.9-2.3l.1.2.1-.2h-.2 0zm.9-2.9l-.1-.1h-.1c0 .1 0 .2.2.1-.1.1 0 0 0 0h0 0zm-.4.5c-.1.2-.1.2.1.2-.1-.1-.1-.2-.1-.2h0zm-.9-.3s.1 0 .1.1l.1-.1s-.1 0-.1-.1c-.1 0-.1 0-.1.1h0zm-1.1 2s0 .1 0 0h.2l-.1-.1-.1.1h0 0zm-2.1 1.6s-.1 0 0 0h-.2.1c-.1.1 0 .1.1 0h0zm2.9-.9l.1.1s.1 0 .1-.1l-.1-.1c0 0-.1.1-.1.1h0z"/></svg>