<svg xmlns="http://www.w3.org/2000/svg" fill="white" viewBox="0 0 50 50" xmlns:v="https://vecta.io/nano"><path d="M45.273 2.324c-.187-.207-.457-.324-.738-.324H5.465c-.281 0-.551.117-.738.324s-.285.484-.258.766l3.52 39.426c.035.414.324.758.723.875l16.012 4.57a.91.91 0 0 0 .273.039c.094 0 .184-.012.273-.039l16.023-4.57a1.01 1.01 0 0 0 .723-.875L45.531 3.09c.027-.281-.066-.559-.258-.766zm-8.426 13.594H18.035l.449 5.09h17.91l-1.344 15.043-10.059 3.039-.098-.031-9.941-3.012-.543-6.129h4.871l.211 2.379 5.559 1.164 5.457-1.164.582-6.437H14.047l-1.324-14.805h24.559z"/></svg>