<svg xmlns="http://www.w3.org/2000/svg" viewBox="0 0 50 50" fill="white" xmlns:v="https://vecta.io/nano"><path d="M34.555 3.984c-.78-.026-1.596.11-2.414.375-1.637.531-3.351 1.565-5.111 2.996-.69.561-1.386 1.202-2.084 1.883L22.906 7.4c-1.758-1.43-3.469-2.463-5.102-2.992s-3.257-.546-4.592.225-2.132 2.185-2.49 3.863-.32 3.678.039 5.916l.508 2.424-2.189.742c-2.072.809-3.787 1.778-5.035 2.93s-2.055 2.55-2.055 4.086.806 2.932 2.055 4.084S7.008 30.8 9.08 31.609l2.35.789-.697 3.188c-.36 2.24-.398 4.239-.039 5.922s1.157 3.105 2.498 3.879 2.973.755 4.609.225 3.349-1.563 5.109-2.994c.683-.556 1.375-1.19 2.066-1.863l2.076 1.873c1.758 1.43 3.471 2.463 5.104 2.992s3.256.546 4.59-.225 2.132-2.185 2.49-3.863.319-3.678-.041-5.916a32.13 32.13 0 0 0-.699-3.195l2.424-.811c2.072-.809 3.787-1.779 5.035-2.932s2.055-2.549 2.055-4.084-.806-2.934-2.055-4.086-2.963-2.12-5.035-2.93l-2.223-.752.512-2.439c.36-2.24.398-4.241.039-5.924s-1.159-3.103-2.5-3.877c-.67-.387-1.414-.575-2.193-.602zm-.092 2.035c.489.013.907.13 1.264.336.714.412 1.242 1.215 1.523 2.535s.272 3.105-.061 5.174l-.467 2.229c-2.045-.492-4.286-.858-6.674-1.072-1.2-1.662-2.433-3.174-3.676-4.518l1.947-1.76c1.626-1.322 3.165-2.222 4.449-2.639.642-.208 1.204-.299 1.693-.285zm-18.977.006c.492-.014 1.055.076 1.699.285 1.288.418 2.83 1.317 4.457 2.641.624.508 1.263 1.095 1.906 1.721-1.252 1.354-2.494 2.882-3.701 4.559-2.38.219-4.612.588-6.648 1.082l-.463-2.219c-.333-2.071-.341-3.857-.059-5.182s.815-2.131 1.535-2.547c.36-.208.781-.326 1.273-.34zm9.49 6.117l2.438 2.9L25 14.99l-2.461.055 2.438-2.902zM25 17.01l3.975.15 2.58 4.057 1.98 3.752-2.008 3.803-2.012 3.215-4.516.189a54.15 54.15 0 0 1-4.619-.199l-1.979-3.168-2.002-3.793 2.012-3.816 2.568-4.035L25 17.01zm6.551.4a43.08 43.08 0 0 1 4.635.834c-.427 1.401-.954 2.865-1.592 4.375l-1.307-2.402-1.736-2.807zm-13.207.016l-1.699 2.752-1.326 2.434a45 45 0 0 1-1.58-4.35c1.43-.343 2.968-.628 4.605-.836zm19.82 1.35l2.021.684c1.91.746 3.421 1.63 4.4 2.533s1.404 1.766 1.404 2.602-.425 1.698-1.404 2.602-2.49 1.787-4.4 2.533c-.698.273-1.465.52-2.262.754-.569-1.759-1.294-3.594-2.158-5.467.993-2.151 1.795-4.247 2.398-6.24zm-26.361.01c.596 1.973 1.388 4.049 2.367 6.178-.869 1.884-1.599 3.729-2.17 5.498l-2.186-.732c-1.91-.746-3.421-1.63-4.4-2.533S4.01 25.43 4.01 24.594s.425-1.698 1.404-2.602 2.49-1.787 4.4-2.533l1.988-.674zM25 20a5.02 5.02 0 0 0-5 5 5.02 5.02 0 0 0 5 5 5.02 5.02 0 0 0 5-5 5.02 5.02 0 0 0-5-5zm0 2c1.669 0 3 1.331 3 3s-1.331 3-3 3-3-1.331-3-3 1.331-3 3-3zm9.619 5.363l1.363 3.627-3.83.699 1.145-1.896 1.322-2.43zm-19.277.002l1.33 2.443 1.129 1.875-3.818-.701 1.359-3.617zm-1.936 5.559c1.81.429 3.771.758 5.852.973 1.389 2.009 2.835 3.813 4.291 5.391l-1.928 1.744c-1.626 1.322-3.167 2.22-4.451 2.637s-2.243.361-2.957-.051-1.24-1.215-1.521-2.535-.274-3.103.059-5.172c.151-.939.376-1.944.656-2.986zm23.154.008l.66 3.002c.333 2.071.341 3.855.059 5.18s-.813 2.133-1.533 2.549-1.687.472-2.975.055-2.83-1.319-4.457-2.643c-.636-.517-1.286-1.116-1.941-1.756 1.466-1.584 2.922-3.398 4.32-5.418a46 46 0 0 0 5.867-.969zm-14.693 1.17l3.133.094 3.031-.088c-1.016 1.371-2.052 2.618-3.084 3.74a46.2 46.2 0 0 1-3.08-3.746z"/></svg>